<svg xmlns="http://www.w3.org/2000/svg" xmlns:xlink="http://www.w3.org/1999/xlink" width="352" height="352" viewBox="0 0 352 352">
  <defs>
    <polygon id="biker-a" points=".042 0 352 0 352 352 .042 352"/>
  </defs>
  <g fill="none" fill-rule="evenodd">
    <mask id="biker-b" fill="#fff">
      <use xlink:href="#biker-a"/>
    </mask>
    <polygon points=".042 352 352 352 352 0 .042 0" mask="url(#biker-b)"/>
    <path fill="#171716" d="M170.321536,283.791552 L191.311296,280.020928 C191.479552,279.990656 191.664,280.228608 191.722432,280.553152 L192.150464,282.936896 C192.208896,283.26144 192.119488,283.549376 191.950528,283.579648 L170.961472,287.350976 C170.792512,287.381248 170.608768,287.142592 170.550336,286.818048 L170.1216,284.434304 C170.063872,284.109056 170.15328,283.821824 170.321536,283.791552"/>
    <path fill="#252A31" d="M181.165952,161.217408 C167.551296,153.438208 154.49632,146.321472 145.009216,141.882048 C144.036288,141.427264 143.352,140.522624 143.16896,139.464512 C143.089408,139.003392 143.029568,138.654912 143.029568,138.654912 C140.91264,139.22656 138.938624,139.643328 137.101888,139.94464 C136.578816,142.3312 135.529856,144.286208 133.780416,146.286272 C131.464256,148.935424 128.266688,147.800576 126.75872,145.496384 C126.131456,145.908224 125.511936,146.341888 124.893824,146.792448 C124.659392,147.006464 124.415808,147.207104 124.168,147.401408 C124.268672,148.622144 124.393984,149.840064 124.574912,151.049536 C125.18176,152.60256 125.786496,154.156288 126.38912,155.711424 C127.545792,158.28032 128.675008,160.859776 129.678208,163.4864 C132.347776,164.432576 134.402752,164.688128 134.402752,164.688128 L176.9856,180.286656 C177.832512,180.596416 178.3056,181.492608 178.078208,182.36416 C177.082048,186.179136 176.019712,190.222208 174.88768,194.41312 C173.834496,203.700288 184.745792,210.788864 190.285568,197.736704 C191.571776,194.01536 192.929088,190.060992 194.324416,185.955264 C199.255232,170.19552 191.18528,166.942336 181.165952,161.217408"/>
    <path fill="#EAB77C" d="M174.886976,194.413824 C173.160768,201.47424 170.768576,213.622464 168.03072,224.36128 C160.583104,253.572352 179.877632,228.256512 179.877632,228.256512 C179.877632,228.256512 184.551488,214.324352 190.284864,197.736704 C184.842944,197.938048 179.846656,196.969344 174.886976,194.413824"/>
    <path fill="#252A31" d="M182.69504,229.90528 C183.639808,231.268928 186.453696,234.675584 193.662656,239.73664 C194.410304,240.261824 195.06432,240.98272 195.428288,241.909888 C195.696512,242.593472 195.80704,243.269312 195.759168,243.938112 C195.676096,245.10816 195.091776,245.560128 194.005504,245.2912 L168.528448,239.882368 C165.261888,239.117824 164.652928,239.048128 164.323456,238.544064 C164.227712,238.523648 164.163648,238.351168 164.131968,238.027328 C164.060864,237.419072 164.191808,236.417984 164.5248,235.02336 L165.878592,228.714112 C166.152448,227.436352 166.859968,226.686592 167.809664,227.294848 C172.002688,229.983424 176.470976,229.418816 179.40384,228.40576 C180.3648,228.074176 180.619648,228.086144 181.129344,228.25792 C181.949504,228.533888 182.167744,229.14496 182.69504,229.90528"/>
    <path fill="#6EB744" d="M191.401408 243.32L195.625408 244.088064C195.754944 244.114816 195.86688 244.216896 195.963328 244.395712 196.227328 245.045504 196.1696 245.54816 195.790848 245.90368 195.378304 246.411264 194.594048 246.542208 193.436672 246.299328L163.483584 239.883776 163.254784 239.776064C162.828864 239.40928 163.003456 236.791104 163.696896 236.222976 166.929664 235.56544 168.135616 235.75904 170.681984 237.841472 171.982976 238.90592 173.061504 239.386752 175.581824 239.326208 180.472512 239.209344 185.8032 242.180224 191.401408 243.32M190.114496 236.658752C190.099712 236.521472 190.037056 236.400384 189.940608 236.323648 185.425152 232.733952 183.577856 230.33824 182.992832 229.475136 182.910464 229.353344 182.781632 229.288576 182.644352 229.294208L182.388096 229.307584C182.248 229.314624 182.11424 229.397696 182.02624 229.53216L181.404608 230.480448C180.728064 231.509696 180.8224 232.927552 181.618624 233.707584L186.605056 238.58912C186.824 238.772864 187.071808 238.897472 187.3344 238.957312 187.569536 239.010112 187.81664 239.01152 188.065856 238.960128 188.593152 238.848192 189.066944 238.508864 189.397824 238.001984L190.019456 237.055808C190.094784 236.940352 190.12928 236.796736 190.114496 236.658752"/>
    <path fill="#24B5DD" d="M177.434752,257.622464 C176.83776,257.604864 176.243584,257.397184 175.747968,256.988864 C174.559616,256.0096 174.389248,254.254528 175.367808,253.067584 L220.340032,187.174592 C221.318592,185.98624 223.074368,185.816576 224.262016,186.794432 C225.449664,187.772992 225.618624,189.528768 224.642176,190.715712 L179.669248,256.608704 C179.099008,257.300032 178.266176,257.647104 177.434752,257.622464"/>
    <path fill="#D8DAB1" d="M258.2976 208.931008C245.4144 208.931008 234.269376 213.54432 225.172288 222.641408 216.075904 231.7392 211.462592 242.88352 211.462592 255.76672 211.462592 268.62176 216.076608 279.766784 225.175104 288.89344 234.269376 297.988416 245.4144 302.601024 258.2976 302.601024 271.153344 302.601024 282.298368 297.987712 291.425024 288.88992 300.519296 279.766784 305.132608 268.62176 305.132608 255.76672 305.132608 242.88352 300.52 231.7392 291.422912 222.641408 282.299072 213.545024 271.153344 208.931008 258.2976 208.931008zM258.2976 307.304448C244.121856 307.304448 231.857472 302.227904 221.847296 292.217728 211.835008 282.175168 206.759872 269.911488 206.759872 255.76672 206.759872 241.590272 211.835712 229.327296 221.847296 219.315712 231.857472 209.305536 244.121152 204.228992 258.2976 204.228992 272.443776 204.228992 284.706752 209.304128 294.746496 219.314304 304.759488 229.327296 309.835328 241.590272 309.835328 255.76672 309.835328 269.911488 304.760192 282.175168 294.75072 292.215616 284.706048 302.229312 272.443072 307.304448 258.2976 307.304448zM93.7024 208.931008C80.818496 208.931008 69.673472 213.54432 60.577088 222.641408 51.48 231.7392 46.867392 242.88352 46.867392 255.76672 46.867392 268.62176 51.480704 279.766784 60.5792 288.89344 69.673472 297.988416 80.818496 302.601024 93.7024 302.601024 106.55744 302.601024 117.703168 297.987712 126.82912 288.88992 135.924096 279.766784 140.536704 268.62176 140.536704 255.76672 140.536704 242.88352 135.9248 231.7392 126.827712 222.641408 117.703168 213.545024 106.55744 208.931008 93.7024 208.931008zM93.7024 307.304448C79.525952 307.304448 67.261568 302.227904 57.251392 292.217728 47.239808 282.175168 42.164672 269.911488 42.164672 255.76672 42.164672 241.590272 47.240512 229.327296 57.251392 219.315712 67.261568 209.305536 79.525248 204.228992 93.7024 204.228992 107.847872 204.228992 120.110848 209.304128 130.151296 219.314304 140.164288 229.327296 145.240128 241.590272 145.240128 255.76672 145.240128 269.911488 140.164992 282.175168 130.154816 292.215616 120.110848 302.229312 107.847168 307.304448 93.7024 307.304448z"/>
    <path fill="#171716" d="M93.7024,204.692928 C79.461888,204.692928 67.655808,209.59136 57.609024,219.6656 C47.526336,229.720128 42.628608,241.526208 42.628608,255.76672 C42.628608,269.977664 47.527744,281.785856 57.605504,291.862912 C67.655808,301.94208 79.461888,306.839808 93.7024,306.839808 C107.913344,306.839808 119.720832,301.941376 129.798592,291.862912 C139.876352,281.785856 144.775488,269.977664 144.775488,255.76672 C144.775488,241.526208 139.87776,229.720128 129.802816,219.673344 C119.720832,209.592064 107.913344,204.692928 93.7024,204.692928 Z M93.7024,314.268416 C77.613888,314.268416 63.700032,308.49632 52.348736,297.111936 C40.971392,285.733888 35.2,271.822144 35.2,255.76672 C35.2,239.678208 40.972096,225.764352 52.35648,214.413056 C63.700032,203.036416 77.613888,197.26432 93.7024,197.26432 C109.757824,197.26432 123.669568,203.035008 135.05184,214.416576 C146.432,225.764352 152.2048,239.678208 152.2048,255.76672 C152.2048,271.822144 146.433408,285.733888 135.05184,297.115456 C123.669568,308.497728 109.757824,314.268416 93.7024,314.268416 Z"/>
    <path fill="#171716" d="M97.727872 251.787008C96.650752 250.710592 95.3392 250.171328 93.792512 250.171328 93.602432 250.171328 93.416576 250.179776 93.23424 250.195968 91.927616 250.312128 90.80192 250.842944 89.857152 251.787008 88.752576 252.892288 88.20064 254.217216 88.20064 255.763904 88.20064 257.283136 88.752576 258.594688 89.857152 259.699264 90.790656 260.632768 91.901568 261.162176 93.187776 261.286784 93.384896 261.305792 93.586944 261.314944 93.792512 261.314944 95.3392 261.314944 96.650752 260.776384 97.727872 259.699264 98.804992 258.622144 99.343552 257.310592 99.343552 255.763904 99.343552 254.217216 98.804992 252.892288 97.727872 251.787008M258.2976 204.692928C244.057792 204.692928 232.251008 209.59136 222.204928 219.6656 212.12224 229.720128 207.224512 241.526208 207.224512 255.76672 207.224512 269.977664 212.123648 281.785856 222.200704 291.862912 232.251008 301.94208 244.057792 306.839808 258.2976 306.839808 272.50784 306.839808 284.316032 301.941376 294.394496 291.862912 304.472256 281.785856 309.370688 269.977664 309.370688 255.76672 309.370688 241.526208 304.47296 229.720128 294.39872 219.673344 284.316032 209.592064 272.50784 204.692928 258.2976 204.692928zM258.2976 314.268416C242.209792 314.268416 228.295936 308.49632 216.94464 297.111936 205.566592 285.733888 199.795904 271.822144 199.795904 255.76672 199.795904 239.678208 205.567296 225.764352 216.952384 214.413056 228.295936 203.036416 242.209792 197.26432 258.2976 197.26432 274.35232 197.26432 288.264768 203.035008 299.64704 214.416576 311.027904 225.764352 316.8 239.678208 316.8 255.76672 316.8 271.822144 311.029312 285.733888 299.64704 297.115456 288.264768 308.497728 274.35232 314.268416 258.2976 314.268416z"/>
    <path fill="#171716" d="M263.869056,255.76672 C263.869056,257.290176 263.330496,258.608064 262.253376,259.722496 C261.139648,260.799616 259.821056,261.338176 258.2976,261.338176 C256.737536,261.338176 255.418944,260.799616 254.341824,259.722496 C253.264704,258.608064 252.726144,257.290176 252.726144,255.76672 C252.726144,254.20736 253.264704,252.888064 254.341824,251.810944 C255.418944,250.73312 256.737536,250.195264 258.2976,250.195264 C259.821056,250.195264 261.139648,250.73312 262.253376,251.810944 C263.330496,252.888064 263.869056,254.20736 263.869056,255.76672"/>
    <path fill="#24B5DD" d="M221.339712,191.043072 L139.133632,191.043072 C137.68128,191.043072 136.503488,189.795584 136.503488,188.25664 C136.503488,186.719104 137.68128,185.470912 139.133632,185.470912 L221.339712,185.470912 C222.792768,185.470912 223.969856,186.719104 223.969856,188.25664 C223.969856,189.795584 222.792768,191.043072 221.339712,191.043072"/>
    <path fill="#24B5DD" d="M176.162624,268.303552 C175.040448,268.303552 173.981632,267.619968 173.558528,266.508352 L126.199744,166.497408 C125.652736,165.059136 126.374336,163.449792 127.811904,162.902784 C129.248768,162.35648 130.860224,163.076672 131.407232,164.514944 L178.766016,264.525888 C179.313024,265.96416 178.591424,267.5728 177.153856,268.120512 C176.827904,268.244416 176.4928,268.303552 176.162624,268.303552"/>
    <path fill="#24B5DD" d="M93.680576,258.31168 C93.084288,258.31168 92.483776,258.120896 91.976192,257.728064 C90.75968,256.784704 90.53792,255.035968 91.480576,253.819456 L136.352128,186.550144 C137.294784,185.333632 139.044928,185.112576 140.260032,186.055232 C141.476544,186.997888 141.6976,188.748032 140.755648,189.96384 L95.8848,257.233152 C95.33568,257.941376 94.512,258.31168 93.680576,258.31168"/>
    <path fill="#24B5DD" d="M176.639232,258.551744 C176.515328,258.56864 176.39072,258.577088 176.262592,258.577088 L94.168448,258.577088 C92.630208,258.577088 91.38272,257.330304 91.382016,255.792064 C91.38272,254.252416 92.63232,253.004224 94.168448,253.006336 L176.262592,253.006336 C177.801536,253.006336 179.04832,254.25312 179.04832,255.79136 C179.04832,257.202176 177.99936,258.368 176.639232,258.551744"/>
    <path fill="#171716" d="M147.979392,162.16288 C148.81504,162.967552 149.233216,163.942592 149.233216,165.088 C149.233216,166.233408 148.81504,167.223936 147.979392,168.059584 C147.17472,168.864256 146.198976,169.266944 145.053568,169.266944 L119.656768,169.266944 C118.51136,169.266944 117.520832,168.864256 116.685184,168.059584 C115.880512,167.254912 115.478528,166.264384 115.478528,165.088 C115.478528,163.942592 115.880512,162.967552 116.685184,162.16288 C117.520832,161.327232 118.51136,160.909056 119.656768,160.909056 L145.053568,160.909056 C146.198976,160.909056 147.17472,161.327232 147.979392,162.16288"/>
    <path fill="#2DB4DC" d="M258.394048,258.631296 C257.623872,258.631296 256.858624,258.313792 256.308096,257.691456 C255.685056,256.98816 240.939072,240.159744 231.478016,214.562304 L213.468288,164.824 C212.945216,163.376576 213.692864,161.7792 215.139584,161.256128 C216.5856,160.732352 218.18368,161.48 218.706752,162.92672 L236.70944,212.648128 C245.786112,237.20224 260.334272,253.834944 260.480704,253.99968 C261.498688,255.152832 261.390976,256.912832 260.239232,257.932224 C259.708416,258.401088 259.05088,258.631296 258.394048,258.631296"/>
    <path fill="#24B5DD" d="M185.077376,246.222592 C187.801152,248.947072 189.162688,252.227712 189.162688,256.065216 C189.162688,259.904832 187.801152,263.185472 185.077376,265.909248 C182.352896,268.63232 179.071552,269.995264 175.234048,269.995264 C174.731392,269.995264 174.238592,269.971328 173.754944,269.924864 C170.546112,269.615104 167.757568,268.276096 165.39072,265.909248 C162.666944,263.185472 161.304704,259.904832 161.304704,256.065216 C161.304704,252.227712 162.666944,248.947072 165.39072,246.222592 C167.785728,243.827584 170.611584,242.485056 173.868288,242.195712 C174.315328,242.156288 174.770112,242.136576 175.234048,242.136576 C179.071552,242.136576 182.352896,243.498816 185.077376,246.222592"/>
    <path fill="#757466" d="M93.848832,260.862272 L173.868992,268.7696 C174.313216,268.812544 174.773632,268.833664 175.234048,268.833664 C178.78432,268.833664 181.735488,267.608704 184.256512,265.089088 C186.777536,262.568064 188.002496,259.616896 188.002496,256.065216 C188.002496,252.515648 186.777536,249.56448 184.256512,247.043456 C181.735488,244.522432 178.78432,243.297472 175.234048,243.297472 C174.805312,243.297472 174.38432,243.315072 173.971776,243.353088 L93.845312,250.630336 L93.845312,250.658496 L93.246912,250.68384 C92.062784,250.794368 91.067328,251.267456 90.205632,252.13056 C89.184128,253.15136 88.687808,254.339712 88.687808,255.76672 C88.687808,257.162048 89.184128,258.335616 90.204928,259.356416 C91.056768,260.208256 92.03744,260.679936 93.201856,260.798208 L93.849536,260.82848 L93.848832,260.862272 Z M175.234048,271.155456 C174.699712,271.155456 174.165376,271.130112 173.643712,271.080832 L93.002624,263.111552 C91.292608,262.945408 89.799424,262.233664 88.563904,260.998144 C87.105216,259.540864 86.36672,257.780864 86.36672,255.76672 C86.36672,253.720896 87.105216,251.946112 88.563904,250.488832 C89.814912,249.235712 91.32992,248.523968 93.06528,248.369792 L173.762688,241.040448 C174.24352,240.997504 174.738432,240.97568 175.234048,240.97568 C179.373568,240.97568 182.961856,242.46464 185.89824,245.402432 C188.83392,248.338816 190.323584,251.927104 190.323584,256.065216 C190.323584,260.20544 188.83392,263.793728 185.89824,266.730112 C182.961152,269.666496 179.372864,271.155456 175.234048,271.155456 Z"/>
    <path fill="#171716" d="M233.989184,185.223808 C233.02048,185.223808 232.079232,184.718336 231.566016,183.816512 C230.804288,182.478912 231.270336,180.778048 232.607936,180.01632 C234.874816,178.725184 236.28352,176.304832 236.28352,173.700032 C236.28352,169.693568 233.024704,166.434752 229.019648,166.434752 L225.92416,166.434752 C224.385216,166.434752 223.138432,165.187264 223.138432,163.64832 C223.138432,162.11008 224.385216,160.862592 225.92416,160.862592 L229.019648,160.862592 C236.09696,160.862592 241.854976,166.621312 241.854976,173.700032 C241.854976,178.302784 239.368448,182.578176 235.3648,184.858432 C234.930432,185.10624 234.455936,185.223808 233.989184,185.223808"/>
    <path fill="#502A1B" d="M168.260928,61.713344 C168.260928,61.713344 160.919616,55.981376 149.864,66.028864 C140.9584,74.122048 134.792768,70.481664 134.792768,70.481664 C134.792768,70.481664 138.899904,81.478848 151.47264,80.848768 C166.814208,80.079296 167.66464,68.308416 168.260928,61.713344"/>
    <path fill="#F7C885" d="M181.066688,99.787776 L171.625344,90.62944 C171.625344,90.62944 176.387904,89.423488 177.336896,84.508864 C179.011008,75.841216 188.901504,87.75008 188.901504,87.75008 L181.066688,99.787776"/>
    <path fill="#81BD42" d="M171.625344,90.62944 C159.673536,95.749632 155.958528,106.428608 146.034944,119.230848 C140.409984,126.48768 134.155648,131.21856 128.743296,134.205632 C127.467648,134.909632 126.260992,136.827328 125.091648,137.4208 C124.695296,137.922048 127.648576,139.491264 137.077952,146.335552 C146.507328,153.17984 144.880384,150.786944 144.893056,150.769344 C153.80288,138.000896 167.24928,125.936448 167.24928,125.936448 C176.737088,127.174784 178.584384,118.8528 179.772032,110.865216 C180.2416,107.706368 180.90688,105.366272 181.468672,103.792832 C182.40992,101.149312 181.969216,98.208704 180.298624,95.952384 C177.839552,92.630912 173.906304,89.652288 171.625344,90.62944"/>
    <path fill="#313845" d="M145.317568,150.18432 C145.317568,150.18432 133.091904,143.340736 128.668672,134.08736 C128.668672,134.08736 119.878528,138.139584 118.350144,147.05504 C116.957632,155.180608 122.993024,162.719744 122.993024,162.719744 C122.993024,162.719744 136.191616,186.907072 151.461376,230.980992 C156.08736,236.658048 165.222464,234.507328 166.83744,227.364544 C167.010624,226.6 167.112,226.150144 167.112,226.150144 C160.264192,200.307008 151.858432,166.848 145.317568,150.18432"/>
    <path fill="#F7C885" d="M167.112 226.151552C162.542336 229.004864 156.268288 230.707136 151.457856 230.97536 155.629056 243.015872 160.883712 256.536192 165.137984 271.45888 173.402944 300.448896 178.625216 267.531968 178.625216 267.531968 178.625216 267.531968 173.17344 249.028736 167.112 226.151552M204.76544 74.055168C205.218816 68.436544 204.531712 56.962752 204.523264 56.866304 203.691136 47.831872 194.24064 47.657984 182.306432 48.560512 171.713344 49.362368 164.174208 57.237312 164.433984 67.857152 164.576192 73.696832 166.353792 80.536896 176.044352 88.261184 177.456576 88.821568 185.00064 89.26016 185.00064 89.26016 188.878976 91.360192 191.92096 92.26272 193.8464 92.64992 195.555712 92.994176 197.340352 92.52672 198.624448 91.346112 203.511616 86.855296 204.8112 76.717696 204.76544 74.055168"/>
    <path fill="#643721" d="M190.520704,42.974272 L183.542656,42.973568 C183.542656,42.973568 183.541952,42.973568 183.541248,42.973568 L181.762944,42.973568 L181.646784,43.06368 C171.072,44.020416 163.726464,51.96224 163.72576,62.78624 L163.72576,64.351232 L163.725056,66.541376 L163.773632,66.516032 C163.773632,75.213952 168.799488,84.139264 175.5952,87.900736 C175.5952,87.900736 174.037248,84.540544 177.43264,80.195456 C178.96032,78.240448 184.667648,75.002752 190.139136,62.784128 L191.8928,62.301184 C196.99328,65.498752 201.112384,65.081984 203.74816,64.097792 C205.801728,63.330432 207.052736,61.236736 206.765504,59.063488 C205.601792,50.277568 199.574144,42.97568 190.520704,42.974272"/>
    <path fill="#313845" d="M180.863936,267.790336 C182.249408,268.70272 186.13056,270.812608 194.707392,272.818304 C195.597952,273.026688 196.473024,273.451904 197.156608,274.175616 C197.660672,274.709952 198.014784,275.29568 198.220352,275.933504 C198.580096,277.050752 198.206272,277.687872 197.09888,277.843456 L172.372288,282.33216 C169.056448,282.841856 167.152128,282.924224 166.65792,282.579264 C166.561472,282.595456 166.437568,282.460992 166.287616,282.172352 C165.994752,281.633792 165.74272,280.655936 165.530816,279.23808 L164.432576,272.878848 C164.210112,271.590528 164.586752,270.63168 165.694848,270.842176 C170.588352,271.770752 174.908096,269.66016 177.251008,267.626304 C178.019072,266.959616 178.259136,266.876544 178.796992,266.845568 C179.6608,266.795584 180.091648,267.28064 180.863936,267.790336"/>
    <path fill="#95C53E" d="M193.946368 276.986688L198.152768 276.12288C198.282304 276.099648 198.425216 276.152448 198.581504 276.282688 199.068672 276.786752 199.202432 277.274624 198.983488 277.7456 198.790592 278.370048 198.111936 278.785408 196.946816 278.992384L166.984576 284.468096 166.73184 284.454016C166.199616 284.273088 165.385088 281.778112 165.81664 280.992448 168.569984 279.176832 169.540096 278.652352 172.679936 279.635136 174.284352 280.137088 175.464256 280.180032 177.779712 279.183872 182.273344 277.250688 188.327744 278.018048 193.946368 276.986688M190.267968 271.287104C190.2032 271.164608 190.099008 271.075904 189.980736 271.040704 184.452224 269.394752 181.843904 267.86144 180.978688 267.279232 180.858304 267.196864 180.713984 267.184896 180.589376 267.241216L180.356352 267.349632C180.228928 267.408064 180.135296 267.534784 180.103616 267.69248L179.881152 268.804096C179.637568 270.01216 180.254272 271.292032 181.284224 271.718656L187.73216 274.386816C188.003904 274.476224 188.279168 274.498752 188.54528 274.456512 188.783232 274.417792 189.012736 274.326976 189.22464 274.186176 189.673088 273.886272 189.98496 273.394176 190.103936 272.800704L190.327808 271.689792C190.35456 271.554624 190.332736 271.408896 190.267968 271.287104"/>
    <path fill="#F7C885" d="M179.925504,97.506816 C183.292032,104.331392 187.381568,114.093056 191.12192,120.72192 C196.453312,130.1696 200.88288,135.49888 207.962304,143.723008 C211.83008,148.215936 217.137536,153.400192 221.051776,154.87648 C222.264768,155.333376 223.325696,155.110912 224.60064,155.339008 C226.164928,155.618496 227.432832,156.214784 228.487424,157.485504 C231.1936,160.746432 230.057344,165.849024 226.214912,167.644928 C222.083136,169.576 217.49376,166.338304 214.524288,163.753216 C211.7104,161.304 208.891584,158.86464 205.984064,156.470336 C197.148864,149.193792 191.958976,143.84128 185.209728,134.577344 C179.198272,126.327168 173.552896,114.483776 168.603072,105.581696 C168.068736,104.62144 167.440064,103.652736 167.114112,102.59744 C166.463616,100.487552 166.88672,98.13056 168.223616,96.374784 C171.29024,92.345088 177.678336,93.002624 179.925504,97.506816"/>
    <path fill="#171716" d="M183.436352,76.536064 C183.154048,76.536064 182.870336,76.441728 182.6352,76.248128 C179.409472,73.582784 176.698368,69.835392 174.579328,65.110144 C174.565248,65.079168 174.55328,65.048192 174.542016,65.015808 L172.375104,58.919168 C172.14208,58.264448 172.484224,57.543552 173.140352,57.311232 C173.79296,57.077504 174.515264,57.420352 174.748992,58.07648 L176.898304,64.124544 C178.855424,68.472448 181.324352,71.897408 184.238912,74.305088 C184.776064,74.748608 184.851392,75.542016 184.408576,76.078464 C184.15936,76.379776 183.799616,76.536064 183.436352,76.536064"/>
    <path fill="#171716" d="M183.436352,76.536064 C183.150528,76.536064 182.863296,76.438912 182.627456,76.240384 C182.094528,75.793344 182.025536,74.998528 182.472576,74.466304 C184.664832,71.855872 186.700096,68.320384 188.522752,63.957696 C189.441472,61.759808 190.154624,59.804096 190.643904,58.142656 C190.84032,57.473856 191.546432,57.095104 192.207488,57.289408 C192.87488,57.485824 193.257152,58.1856 193.060736,58.852992 C192.546112,60.602432 191.800576,62.646848 190.848064,64.928512 C188.926144,69.52704 186.757824,73.280768 184.40224,76.086208 C184.15232,76.383296 183.795392,76.536064 183.436352,76.536064"/>
    <path fill="#171716" d="M188.880384,92.760448 C188.479104,92.760448 188.08416,92.56896 187.839872,92.212032 C187.351296,91.49888 186.750784,90.288 186.004544,88.512512 C184.633856,85.084736 183.359616,80.730496 182.207168,75.54976 C182.056512,74.8704 182.484544,74.19808 183.163904,74.04672 C183.844672,73.897472 184.516992,74.324096 184.667648,75.002752 C185.78912,80.05184 187.023232,84.275136 188.334784,87.55648 C189.16128,89.523456 189.65408,90.402048 189.918784,90.789248 C190.31232,91.363008 190.16448,92.147264 189.591424,92.540096 C189.373184,92.689344 189.12608,92.760448 188.880384,92.760448"/>
    <path fill="#24B5DD" d="M188.007424,37.731584 C194.827072,37.731584 199.384768,38.524288 203.98048,43.47552 C211.118336,51.165312 207.047104,60.31168 207.047104,60.31168 L168.1856,60.31168 C164.427648,60.31168 161.99392,59.992064 160.919616,59.35424 C159.475008,58.446784 153.01792,54.8592 165.586432,45.037696 C173.445888,40.16672 180.920256,37.731584 188.007424,37.731584"/>
    <path fill="#2A629F" d="M196.142144,43.755712 C194.018176,42.914432 191.51616,42.525824 188.706496,42.599744 C176.835648,42.910912 171.023424,48.306368 171.023424,48.306368 L188.350272,48.254272 C189.7104,48.218368 192.534144,48.245824 196.748288,48.335936 C196.966528,48.339456 197.169984,48.338752 197.360768,48.333824 C198.01056,48.316928 198.49632,48.250048 198.841984,48.12896 C199.528384,47.890304 199.619904,47.446784 199.613568,47.2032 C199.57696,45.8128 198.409728,44.652608 196.142144,43.755712"/>
  </g>
</svg>
