<svg xmlns="http://www.w3.org/2000/svg" xmlns:xlink="http://www.w3.org/1999/xlink" width="363" height="352" viewBox="0 0 363 352">
  <defs>
    <polygon id="bus-a" points=".04 .21 29.759 .21 29.759 61.399 .04 61.399"/>
    <polygon id="bus-c" points=".237 .026 306.434 .026 306.434 287.973 .237 287.973"/>
  </defs>
  <g fill="none" fill-rule="evenodd">
    <path fill="#1F2B33" d="M332.269306,67.40992 C339.328301,71.07968 349.323694,72.05376 356.442858,72.81728 C357.363251,72.9152 358.109087,73.54304 358.109087,74.22208 C358.109087,75.52704 358.109087,78.47936 358.109087,79.78624 C358.109087,80.46336 357.363251,81.09056 356.442858,81.18976 C349.323694,81.95456 339.328301,82.92864 332.269306,86.59712 C332.269306,80.66496 332.269306,73.34272 332.269306,67.40992"/>
    <polygon fill="#1F2B33" points="352.571 90.246 355.942 90.246 355.942 76.734 352.571 76.734"/>
    <path fill="#1F2B33" d="M357.365235,128.59904 L342.063033,128.59904 C339.213913,128.59904 336.904995,126.11136 336.904995,123.04192 L335.217607,93.03872 C335.217607,89.968 337.528508,87.4816 340.379612,87.4816 L355.680492,87.4816 C358.531596,87.4816 360.840514,89.968 360.840514,93.03872 L362.524596,123.04192 C362.524596,126.11136 360.215678,128.59904 357.365235,128.59904"/>
    <g transform="translate(0 67.2)">
      <mask id="bus-b" fill="#fff">
        <use xlink:href="#bus-a"/>
      </mask>
      <path fill="#1F2B33" d="M29.759388.20992C22.816765 3.87968 12.9860109 4.85376 5.98387978 5.61728 5.07671038 5.7152 4.34211475 6.34304 4.34211475 7.02208 4.34211475 8.32704 4.34211475 11.27936 4.34211475 12.58624 4.34211475 13.26336 5.07671038 13.89056 5.98387978 13.98976 12.9860109 14.75456 22.816765 15.72864 29.759388 19.39712 29.759388 13.46496 29.759388 6.14272 29.759388.20992M5.07406557 61.39904L20.1276557 61.39904C22.9271858 61.39904 25.2010601 58.91136 25.2010601 55.84192L26.858694 25.83872C26.858694 22.768 24.5868033 20.2816 21.783306 20.2816L6.73103825 20.2816C3.93084699 20.2816 1.65763388 22.768 1.65763388 25.83872L0 55.84192C0 58.91136 2.27189071 61.39904 5.07406557 61.39904" mask="url(#bus-b)"/>
    </g>
    <polygon fill="#1F2B33" points="6.51 90.246 9.763 90.246 9.763 76.734 6.51 76.734"/>
    <g transform="translate(28.432)">
      <mask id="bus-d" fill="#fff">
        <use xlink:href="#bus-c"/>
      </mask>
      <path fill="#EAEAE5" d="M1.92079235,283.11552 L1.92079235,21.90208 C1.92079235,12.45632 10.6156011,3.408 21.3403005,3.408 L287.013322,3.408 C297.740005,3.408 306.434153,12.45632 306.434153,21.90208 L306.434153,283.11552 C306.434153,285.7984 304.088869,287.97312 301.195448,287.97312 L7.15883607,287.97312 C4.2654153,287.97312 1.92079235,285.7984 1.92079235,283.11552" mask="url(#bus-d)"/>
      <path fill="#358CC0" d="M304.750071,18.46848 C304.750071,9.03552 296.055923,0 285.32924,0 L19.6562186,0 C8.93151913,0 0.236710383,9.03552 0.236710383,18.46848 L0.236710383,42.24832 L304.750071,42.24832 L304.750071,18.46848" mask="url(#bus-d)"/>
    </g>
    <path fill="#2F73AD" d="M333.181765,52.95872 L333.181765,23.95904 C333.181765,14.51328 324.487617,5.46496 313.760934,5.46496 L48.0879126,5.46496 C37.3632131,5.46496 28.6684044,14.51328 28.6684044,23.95904 L28.6684044,52.95872 L333.181765,52.95872"/>
    <polygon fill="#0A0B09" points="82.636 326.052 281.357 326.052 281.357 319.566 82.636 319.566"/>
    <path fill="#0A0B09" d="M266.18347 330.68544L97.0757213 330.68544C95.8584481 330.68544 94.4838087 329.82784 94.0057596 328.76928L91.9348743 324.20032 271.323656 324.20032 269.25277 328.76928C268.775383 329.82784 267.400082 330.68544 266.18347 330.68544M80.8365956 352L49.3270055 352C47.2547978 352 45.5746831 350.44416 45.5746831 348.5248L45.5746831 310.30208 84.588918 310.30208 84.588918 348.5248C84.588918 350.44416 82.9107869 352 80.8365956 352M313.793333 352L282.282421 352C280.210213 352 278.530098 350.44416 278.530098 348.5248L278.530098 310.30208 317.544995 310.30208 317.544995 348.5248C317.544995 350.44416 315.865541 352 313.793333 352"/>
    <path fill="#0A0B09" d="M28.6684044,291.05856 L28.6684044,319.44832 C28.6684044,320.66432 31.0130273,321.65056 33.9064481,321.65056 L327.94306,321.65056 C330.836481,321.65056 333.181765,320.66432 333.181765,319.44832 L333.181765,291.05856 L28.6684044,291.05856"/>
    <path fill="#FFFFFE" d="M222.236667,314.8992 L140.348098,314.8992 C139.344393,314.8992 138.529131,314.24576 138.529131,313.43936 L138.529131,301.03232 C138.529131,300.22592 139.344393,299.57248 140.348098,299.57248 L222.236667,299.57248 C223.243016,299.57248 224.056956,300.22592 224.056956,301.03232 L224.056956,313.43936 C224.056956,314.24576 223.243016,314.8992 222.236667,314.8992"/>
    <path fill="#ADAEAD" d="M140.348098,300.61504 C139.899142,300.61504 139.611519,300.86272 139.611519,301.03232 L139.611519,313.43936 C139.611519,313.61024 139.899142,313.85728 140.348098,313.85728 L222.236667,313.85728 C222.685623,313.85728 222.972585,313.61024 222.972585,313.43936 L222.972585,301.03232 C222.972585,300.86272 222.685623,300.61504 222.236667,300.61504 L140.348098,300.61504 Z M222.236667,315.94176 L140.348098,315.94176 C138.747328,315.94176 137.446082,314.8192 137.446082,313.43936 L137.446082,301.03232 C137.446082,299.65312 138.747328,298.52928 140.348098,298.52928 L222.236667,298.52928 C223.836776,298.52928 225.138683,299.65312 225.138683,301.03232 L225.138683,313.43936 C225.138683,314.8192 223.836776,315.94176 222.236667,315.94176 Z"/>
    <path fill="#3A5364" d="M274.970847,229.68384 L266.371251,270.42816 C265.492514,275.45664 260.521596,279.54816 255.289503,279.54816 L106.56265,279.54816 C101.331219,279.54816 96.3536885,275.44 95.4709836,270.38208 L86.881306,229.68384 L83.9587923,229.68384 L92.6562459,270.89408 C93.7584699,277.19808 99.9955902,282.32768 106.56265,282.32768 L255.289503,282.32768 C261.856563,282.32768 268.091699,277.2128 269.185328,270.93952 L277.804098,230.10048 L277.890055,229.68384 L274.970847,229.68384"/>
    <polyline fill="#3A494C" points="265.809 243.583 96.041 243.583 97.23 248.796 264.622 248.796 265.809 243.583"/>
    <polyline fill="#3A494C" points="99.212 257.483 262.639 257.483 263.829 252.271 98.023 252.271 99.212 257.483"/>
    <path fill="#3A494C" d="M101.00723 265.35808C101.070705 265.632 101.15071 265.90144 101.235344 266.1696L260.613503 266.1696C260.698798 265.90144 260.780126 265.632 260.84294 265.35808L261.847967 260.95744 100.004186 260.95744 101.00723 265.35808M113.160787 274.85632L248.690044 274.85632C252.58188 274.85632 256.430077 272.73472 258.781973 269.64416L103.068858 269.64416C105.420093 272.73472 109.267628 274.85632 113.160787 274.85632"/>
    <path fill="#3A5364" d="M33.0640765,187.69984 L33.0640765,61.22368 C33.0640765,53.54688 40.1541475,47.32416 48.9025137,47.32416 L313.004519,47.32416 C321.752224,47.32416 328.843617,53.54688 328.843617,61.22368 L328.843617,187.69984 L33.0640765,187.69984"/>
    <path fill="#1F2B33" d="M262.837787,43.8496 L98.5138361,43.8496 C97.6774153,43.8496 96.9990219,43.22816 96.9990219,42.46016 L96.9990219,12.57792 C96.9990219,11.8112 97.6774153,9.79776 98.5138361,9.79776 L262.837787,9.79776 C263.670902,9.79776 264.349956,11.8112 264.349956,12.57792 L264.349956,42.46016 C264.349956,43.22816 263.670902,43.8496 262.837787,43.8496"/>
    <path fill="#3A5364" d="M35.3604317,194.6496 L35.3604317,68.17344 C35.3604317,60.49664 42.3387596,54.27392 50.9416612,54.27392 L310.773623,54.27392 C319.378508,54.27392 326.356836,60.49664 326.356836,68.17344 L326.356836,194.6496 L35.3604317,194.6496"/>
    <path fill="#1F2B33" d="M33.1493716,196.32576 L33.1493716,218.2784 C33.1493716,225.95456 40.2367978,232.17664 48.9805355,232.17664 L312.989973,232.17664 C321.734372,232.17664 328.821798,225.95456 328.821798,218.2784 L328.821798,196.32576 L33.1493716,196.32576"/>
    <polyline fill="#526E81" points="122.798 53.579 35.102 143.836 35.102 160.518 139.522 53.579 122.798 53.579"/>
    <polyline fill="#526E81" points="169.953 53.579 35.102 189.691 35.102 193.955 49.675 193.955 188.841 53.579 169.953 53.579"/>
    <path fill="#526E81" d="M326.096984,67.4784 C326.096984,64.6272 325.131628,61.97888 323.480607,59.7728 L190.58029,193.9552 L209.469514,193.9552 L326.096984,78.64064 L326.096984,67.4784"/>
    <path fill="#263845" d="M37.824071,192.56448 L324.145776,192.56448 L324.145776,68.17344 C324.145776,61.65888 318.202891,56.35904 310.899251,56.35904 L51.068612,56.35904 C43.7656339,56.35904 37.824071,61.65888 37.824071,68.17344 L37.824071,192.56448 Z M328.821798,196.73472 L33.1493716,196.73472 L33.1493716,68.17344 C33.1493716,59.36 41.1895902,52.1888 51.068612,52.1888 L310.899251,52.1888 C320.780918,52.1888 328.821798,59.36 328.821798,68.17344 L328.821798,196.73472 Z"/>
    <path fill="#CDCECD" d="M272.185202,284.6144 L275.019776,271.75552 C275.504437,268.2464 278.984344,265.40224 282.790885,265.40224 L328.923623,265.40224 C329.215213,265.40224 329.453246,265.62432 329.453246,265.89504 L326.616689,278.7552 C326.134011,282.26304 322.654765,285.10784 318.848885,285.10784 L272.716148,285.10784 C272.423235,285.10784 272.185202,284.88768 272.185202,284.6144"/>
    <polygon fill="#BDBEBD" points="278.966 285.041 320.521 285.041 320.521 274.316 278.966 274.316"/>
    <path fill="#FFFFFE" d="M305.51376 275.39008C305.51376 271.54048 300.154716 268.42048 293.539388 268.42048 286.926705 268.42048 281.563694 271.54048 281.563694 275.39008 281.563694 279.23904 286.926705 282.35968 293.539388 282.35968 300.154716 282.35968 305.51376 279.23904 305.51376 275.39008M323.821126 273.36128C323.821126 271.07648 321.82694 269.22304 319.367929 269.22304 316.905612 269.22304 314.910104 271.07648 314.910104 273.36128 314.910104 275.64672 316.905612 277.49824 319.367929 277.49824 321.82694 277.49824 323.821126 275.64672 323.821126 273.36128"/>
    <path fill="#CDCECD" d="M89.9790383,284.6144 L87.1451257,271.75488 C86.6598033,268.24512 83.1798962,265.40224 79.3740164,265.40224 L33.2426011,265.40224 C32.9503497,265.40224 32.7103333,265.6224 32.7103333,265.8944 L35.5462295,278.75584 C36.0289071,282.26304 39.5107978,285.10784 43.3160164,285.10784 L89.4480929,285.10784 C89.7423279,285.10784 89.9790383,284.88768 89.9790383,284.6144"/>
    <polygon fill="#BDBEBD" points="41.644 285.039 83.198 285.039 83.198 274.316 41.644 274.316"/>
    <path fill="#FFFFFE" d="M56.6484973 275.39008C56.6484973 271.53856 62.010847 268.41984 68.6235301 268.41984 75.2362131 268.41984 80.5979016 271.53856 80.5979016 275.39008 80.5979016 279.23904 75.2362131 282.35968 68.6235301 282.35968 62.010847 282.35968 56.6484973 279.23904 56.6484973 275.39008M38.3431148 273.36128C38.3431148 271.0752 40.338623 269.22176 42.7969727 269.22176 45.257306 269.22176 47.2534754 271.0752 47.2534754 273.36128 47.2534754 275.64608 45.257306 277.49888 42.7969727 277.49888 40.338623 277.49888 38.3431148 275.64608 38.3431148 273.36128"/>
    <path fill="#CDCECD" d="M94.8593716 310.00448L67.0101967 310.00448C65.6395246 310.00448 64.5267213 309.39328 64.5267213 308.63872L64.5267213 301.53536C64.5267213 300.7808 65.6395246 300.17024 67.0101967 300.17024L94.8593716 300.17024C96.2313661 300.17024 97.3454918 300.7808 97.3454918 301.53536L97.3454918 308.63872C97.3454918 309.39328 96.2313661 310.00448 94.8593716 310.00448M295.543492 310.00448L267.698945 310.00448C266.324967 310.00448 265.212164 309.39328 265.212164 308.63872L265.212164 301.53536C265.212164 300.7808 266.324967 300.17024 267.698945 300.17024L295.543492 300.17024C296.918131 300.17024 298.031596 300.7808 298.031596 301.53536L298.031596 308.63872C298.031596 309.39328 296.918131 310.00448 295.543492 310.00448"/>
    <path fill="#2E434F" d="M170.899607,192.50304 C170.824891,192.50304 170.755464,192.50304 170.684055,192.50304 C170.161705,192.50304 169.720683,191.97888 169.697541,191.3312 C168.618459,160.12544 168.618459,128.78464 169.697541,97.57888 C169.720683,96.93248 170.161705,96.40768 170.682732,96.40768 C170.754142,96.40768 170.824891,96.40768 170.899607,96.40768 C171.419973,96.40768 171.859672,96.93248 171.882814,97.57888 C172.962557,128.78464 172.962557,160.12672 171.882814,191.33248 C171.859672,191.97952 171.419973,192.50304 170.899607,192.50304"/>
    <path fill="#2E434F" d="M163.219743,144.78592 C162.579699,144.78592 161.708896,145.08352 161.277792,145.45024 L99.3092623,197.99872 L100.590672,198.9088 L162.248437,146.60288 L164.603639,146.60288 L101.872743,199.81824 L103.154153,200.72768 L166.957519,146.60288 L171.043087,146.60288 L171.043087,144.7904 L163.219743,144.78592"/>
    <path fill="#2E434F" d="M110.105372 201.95456L98.5204481 201.95456C97.8797432 201.95456 97.3626831 201.456 97.3626831 200.84032L97.3626831 197.8688C97.3626831 197.25376 97.8797432 196.75584 98.5204481 196.75584L110.105372 196.75584C110.743432 196.75584 111.263798 197.25376 111.263798 197.8688L111.263798 200.84032C111.263798 201.456 110.743432 201.95456 110.105372 201.95456M191.015361 192.50304C191.088754 192.50304 191.159503 192.50304 191.231574 192.50304 191.752601 192.50304 192.194284 191.97888 192.215443 191.3312 193.297169 160.12544 193.297169 128.78464 192.215443 97.57888 192.194284 96.93248 191.752601 96.40768 191.232896 96.40768 191.159503 96.40768 191.088754 96.40768 191.015361 96.40768 190.494995 96.40768 190.053311 96.93248 190.030831 97.57888 188.951087 128.78464 188.951087 160.12672 190.030831 191.33248 190.053311 191.97952 190.494995 192.50304 191.015361 192.50304"/>
    <path fill="#2E434F" d="M198.697208,144.78592 C199.335929,144.78592 200.204749,145.08352 200.635852,145.45024 L262.605044,197.99872 L261.324956,198.9088 L199.66653,146.60288 L197.309344,146.60288 L260.041563,199.81824 L258.759492,200.72768 L194.955464,146.60288 L190.870557,146.60288 L190.870557,144.7904 L198.697208,144.78592"/>
    <path fill="#2E434F" d="M251.808934 201.95456L263.392536 201.95456C264.03324 201.95456 264.550962 201.456 264.550962 200.84032L264.550962 197.8688C264.550962 197.25376 264.03324 196.75584 263.392536 196.75584L251.808934 196.75584C251.170874 196.75584 250.651831 197.25376 250.651831 197.8688L250.651831 200.84032C250.651831 201.456 251.170874 201.95456 251.808934 201.95456M171.148219 148.37376C171.148219 149.52512 170.338907 150.45824 169.341153 150.45824 168.344721 150.45824 167.536071 149.52512 167.536071 148.37376L167.536071 143.1616C167.536071 142.0096 168.344721 141.07648 169.341153 141.07648 170.338907 141.07648 171.148219 142.0096 171.148219 143.1616L171.148219 148.37376M194.484027 148.37376C194.484027 149.52512 193.675377 150.45824 192.678284 150.45824 191.679869 150.45824 190.87188 149.52512 190.87188 148.37376L190.87188 143.1616C190.87188 142.0096 191.679869 141.07648 192.678284 141.07648 193.675377 141.07648 194.484027 142.0096 194.484027 143.1616L194.484027 148.37376"/>
  </g>
</svg>
