<svg xmlns="http://www.w3.org/2000/svg" xmlns:xlink="http://www.w3.org/1999/xlink" width="363" height="352" viewBox="0 0 363 352">
  <defs>
    <polygon id="car-a" points=".025 .3 362.615 .3 362.615 128.01 .025 128.01"/>
    <path id="car-c" d="M0.242,53.8067424 L0.242,0.359617759 C2.79997869,0.674051824 5.29649023,1.04218782 7.72207815,1.46106288 L7.72207815,52.7049269 C5.29649023,53.1238019 2.79997869,53.4923083 0.242,53.8067424 Z"/>
  </defs>
  <g fill="none" fill-rule="evenodd">
    <polyline fill="#FFFFFE" points="199.231 352 163.769 352 167.928 276.193 195.072 276.193 199.231 352"/>
    <path fill="#FFFFFE" d="M221.797513,19.4924748 C221.797513,30.2575285 140.557726,30.2575285 140.557726,19.4924748 C140.557726,8.72705087 150.316687,0 162.355554,0 L199.999271,0 C212.038139,0 221.797513,8.72705087 221.797513,19.4924748"/>
    <polygon fill="#31322F" points="161.835 18.024 169.572 18.024 169.572 11.133 161.835 11.133"/>
    <polygon fill="#31322F" points="177.309 18.024 185.046 18.024 185.046 11.133 177.309 11.133"/>
    <polygon fill="#31322F" points="193.428 18.024 201.165 18.024 201.165 11.133 193.428 11.133"/>
    <polygon fill="#31322F" points="169.572 9.542 177.309 9.542 177.309 2.651 169.572 2.651"/>
    <polygon fill="#31322F" points="185.046 9.542 192.783 9.542 192.783 2.651 185.046 2.651"/>
    <path fill="#31322F" d="M53.5150977 278.928016C53.5150977 290.006831 43.5562647 298.987952 31.271281 298.987952 18.9854759 298.987952 9.02664298 290.006831 9.02664298 278.928016L9.02664298 256.048193 53.5150977 256.048193 53.5150977 278.928016M353.328597 278.928016C353.328597 290.006831 343.369537 298.987952 331.084369 298.987952 318.800023 298.987952 308.840142 290.006831 308.840142 278.928016L308.840142 256.048193 353.328597 256.048193 353.328597 278.928016"/>
    <path fill="#F0E255" d="M313.998224,135.560617 C313.998224,167.568148 48.357016,167.568148 48.357016,135.560617 L48.357016,78.0984707 C48.357016,46.0913101 77.3584192,20.1445783 113.13189,20.1445783 L249.22335,20.1445783 C284.997234,20.1445783 313.998224,46.0913101 313.998224,78.0984707 L313.998224,135.560617"/>
    <path fill="#929852" d="M298.523979,134.120482 L278.802495,134.120482 L283.383662,134.120482 C282.607193,128.758794 279.57153,123.078802 274.625258,118.354091 L298.523979,105.988606 L298.523979,134.120482 M212.798511,134.120482 L199.860391,134.120482 L199.807112,133.928835 L208.441611,133.928835 C208.431699,133.992717 208.4222,134.0566 208.4127,134.120482 L212.798511,134.120482 M146.953124,134.120482 L64.4760213,134.120482 L64.4760213,78.6384574 C64.4760213,52.1885706 88.4581712,30.746988 118.042048,30.746988 L244.957952,30.746988 C274.542242,30.746988 298.523979,52.1885706 298.523979,78.6384574 L298.523979,96.5724178 L268.144221,113.431825 C262.193496,109.863644 254.684463,107.558339 245.898801,107.558339 C237.174264,107.558339 229.707359,109.831887 223.776046,113.357973 L202.443389,56.5558354 C205.346061,54.7578975 207.247584,51.7587493 207.247584,48.362275 C207.247584,42.8610058 202.259185,38.4014254 196.106495,38.4014254 L195.625332,38.4014254 L192.750332,30.746988 L183.887848,30.746988 L186.028507,38.4014254 L183.887848,38.4014254 L183.887848,30.746988 L178.856082,30.746988 L178.856082,38.4014254 L173.090388,38.4014254 L170.949316,30.746988 L144.888047,30.746988 L145.268021,49.775811 C140.471674,44.6655905 133.271577,41.4083281 125.239254,41.3920805 L118.317943,41.3776793 C118.297705,41.3776793 118.276641,41.3776793 118.256403,41.3776793 C104.202317,41.3776793 92.8956083,51.3185887 92.3405156,63.7745434 C92.2888887,64.0740151 92.2413919,64.3760717 92.1980253,64.6796052 C90.8197931,74.3734782 90.5381166,106.214225 90.5261391,121.299327 C87.1939312,125.342379 85.1292674,129.832978 84.5085053,134.120482 L146.953124,134.120482 M209.053287,120.729186 C205.253959,116.91803 200.059878,113.75973 193.700267,112.094357 L191.821047,105.375261 C196.192402,103.84393 199.942994,101.127637 202.599096,97.6517714 L209.053287,120.729186 M191.685991,58.6299816 C191.35021,58.522157 191.00782,58.4198713 190.659648,58.3227554 L191.600084,58.3227554 L191.685991,58.6299816"/>
    <path fill="#BFBFBA" d="M183.434693,110.795181 C164.541576,110.795181 152.436736,123.206443 150.87389,134.120482 L215.994671,134.120482 C214.431825,123.206443 202.327398,110.795181 183.434693,110.795181"/>
    <path fill="#8F6756" d="M190.848083 111.815456C189.766393 111.580019 189.149911 111.505006 187.815691 111.333813L187.118286 104.690339 179.390709 104.433735 179.096294 111.255829C177.509137 111.400285 176.654765 111.524316 175.388456 111.805801 175.356737 112.157842 175.388049 112.460122 175.403502 112.823675 175.593001 117.162172 179.20243 120.522529 183.464939 120.329427 187.727854 120.135953 191.030262 116.462174 190.840356 112.123677 190.837103 112.052378 190.852962 111.886384 190.848083 111.815456M212.126046 85.6397699C212.109915 88.7143725 209.355269 91.1956569 205.972763 91.1806552 202.590256 91.1675287 199.860427 88.6633666 199.87573 85.5887641 199.891447 82.5149117 202.646507 80.0340022 206.029427 80.0482539 209.411934 80.0625055 212.14135 82.5662926 212.126046 85.6397699"/>
    <path fill="#8F6756" d="M206.323263,85.6065462 C206.331526,97.4604389 195.882239,107.076544 183.128424,107.084333 C170.373369,107.092121 159.910035,97.4886245 159.900533,85.6339901 L160.176927,79.7906733 C160.167838,67.9367806 170.337839,58.3210459 183.091241,58.3132577 C195.846295,58.3054696 206.029103,67.9089659 206.038193,79.7628586 L206.323263,85.6065462"/>
    <path fill="#8F6756" d="M166.992824,86.7001993 C166.976692,89.7747009 164.222275,92.2551539 160.839542,92.2409028 C157.456809,92.2266516 154.727211,89.7236967 154.742515,86.6491951 C154.758233,83.5750685 157.51265,81.0946155 160.896624,81.1084917 C164.278944,81.1227428 167.008956,83.6268228 166.992824,86.7001993"/>
    <path fill="#6B5046" d="M183.12863,107.084333 C170.373689,107.092097 159.910448,97.5175779 159.900946,85.6987129 L159.900533,84.7200006 C159.90673,84.578019 159.909209,84.4371465 159.90673,84.2977531 L162.440945,84.4463901 C162.440945,84.4463901 163.000752,95.1711829 171.362339,95.0022099 C174.313827,94.9434206 178.195299,91.4393573 183.314131,91.3735429 C186.016908,91.3387869 188.226806,92.2110129 190.152462,93.0836086 C192.043827,93.940675 193.661279,94.7973717 195.203952,94.7951533 C203.567604,94.782582 203.760542,83.9320763 203.760542,83.9320763 L206.285667,83.7590361 C206.286494,83.9342948 206.300127,84.1162088 206.321611,84.3010808 L206.323263,85.6713518 C206.331526,97.4894774 195.882332,107.076568 183.12863,107.084333"/>
    <path fill="#44352F" d="M160.039215,75.7706501 C160.502713,69.2274225 166.444252,57.9100788 182.698104,57.253012 C198.891176,57.7543406 205.597631,68.6953171 206.137621,75.2344658 C206.311691,77.3398974 206.323268,83.5998299 206.323268,83.5998299 L203.79615,83.7733667 C203.79615,83.7733667 204.751675,64.4981737 191.81756,67.8291163 C188.944369,68.5696142 185.465447,69.3208654 182.838683,69.3627664 C180.01056,69.3568335 177.146465,68.9452398 174.264178,68.2318107 C161.293678,65.0224922 162.44436,84.2891566 162.443947,84.2891566 L159.900703,84.140093 C159.900703,84.140093 159.889953,77.8779357 160.039215,75.7706501"/>
    <path fill="#FFFFFE" d="M194.717584,95.7540873 L174.730018,95.4216867 C174.730018,95.4216867 178.124283,101.783133 184.589927,101.783133 C190.977878,101.783133 194.433963,97.0307737 194.717584,95.7540873"/>
    <path fill="#0A0B09" d="M192.24256 88.8665893C192.642112 90.1409139 194.072196 90.9055811 195.439387 90.5726918 196.806578 90.2408893 197.591294 88.938673 197.192976 87.6639862 196.793835 86.3892994 195.362929 85.6249944 193.994505 85.9571591 192.628136 86.2889617 191.843419 87.5919024 192.24256 88.8665893M170.965478 88.8666348C171.364235 90.1409269 172.795237 90.9055746 174.16252 90.5726938 175.530214 90.2408998 176.314162 88.9387167 175.915816 87.6640624 175.51706 86.3894082 174.085235 85.6247605 172.717952 85.957279 171.35108 86.289073 170.56631 87.5919805 170.965478 88.8666348"/>
    <path fill="#FFFFFE" d="M245.654259,107.614458 C223.955498,107.614458 210.052766,121.717742 208.257549,134.120482 L283.049734,134.120482 C281.254517,121.717742 267.352608,107.614458 245.654259,107.614458"/>
    <path fill="#F6CCAC" d="M254.67914 108.558851C253.416943 108.29193 252.697516 108.206984 251.141852 108.012927L250.327491 100.483858 241.312152 100.192771 240.96833 107.924319C239.116722 108.088353 238.120338 108.228587 236.643097 108.547867 236.605949 108.9466 236.642271 109.289679 236.660432 109.701228 236.881668 114.618575 241.092568 118.426498 246.065409 118.207908 251.038664 117.988587 254.890882 113.825135 254.67006 108.908155 254.666758 108.827236 254.684919 108.639037 254.67914 108.558851M279.174628 80.3188015C279.007562 83.8283608 275.699825 86.5532776 271.786837 86.4037689 267.873434 86.2553732 264.835573 83.2889423 265.003053 79.77827 265.170119 76.2683397 268.478271 73.5437938 272.391673 73.6925606 276.304661 73.8420693 279.341279 76.8085002 279.174628 80.3188015"/>
    <path fill="#F6CCAC" d="M272.29267,81.7738403 C271.676492,94.8322091 259.445887,104.967932 244.973923,104.411909 C230.501958,103.855144 219.270483,92.8189464 219.887484,79.7594641 L220.304577,70.9414184 C220.5522,65.6766476 220.247813,58.2341828 223.657772,54.4285077 C228.705663,48.7959008 238.985311,47.9726308 247.622502,48.3040916 C262.093644,48.8604855 273.325942,59.8970546 272.709352,72.9557946 L272.29267,81.7738403"/>
    <path fill="#F6CCAC" d="M226.304261,79.2582037 C226.137195,82.7679444 222.829457,85.492343 218.915226,85.3435843 C215.002652,85.1940837 211.965619,82.2278131 212.132685,78.7180724 C212.299337,75.2072188 215.606659,72.4835621 219.521306,72.6323208 C223.433879,72.7821924 226.471326,75.748092 226.304261,79.2582037"/>
    <path fill="#E8E434" d="M222.271429 76.3373494C222.271429 76.3373494 221.464167 75.8737156 220.842551 75.3336666 220.842551 75.3336666 217.402661 68.1407292 218.994083 63.0392873 219.572438 60.7776947 221.260882 57.9275589 223.45628 55.1325301L230.179396 60.4099471C227.430004 63.7979275 223.639404 68.1124409 222.271429 76.3373494M265.641208 58.4804338L270.800442 56.7228916C270.800442 56.7228916 275.773406 63.0616892 273.364228 74.0289147L272.753196 74.2168675C272.753196 74.2168675 272.45467 63.2419027 265.641208 58.4804338"/>
    <path fill="#E8E434" d="M223.087438,54.9746235 L229.780411,60.3231743 C229.780411,60.3231743 255.870289,62.6825756 267.831111,58.3458925 C273.612238,56.2502287 275.160383,55.0930056 276.602131,43.2626571 C268.609548,54.1092349 222.930338,25.9035622 223.087438,54.9746235"/>
    <path fill="#FFFFFE" d="M258.548845,91.0383109 L235.982238,90.6506024 C235.982238,90.6506024 239.813978,98.0722892 247.114759,98.0722892 C254.326915,98.0722892 258.228816,92.5278682 258.548845,91.0383109"/>
    <path fill="#0A0B09" d="M256.086822 83.1685661C256.536248 84.7261774 258.145249 85.6609753 259.683437 85.25424 261.221223 84.8486602 262.103981 83.2567691 261.656164 81.6991578 261.206738 80.1411614 259.596932 79.2067487 258.057939 79.6130988 256.520556 80.0186786 255.637798 81.6109548 256.086822 83.1685661M231.585965 83.1685661C232.034195 84.7261774 233.644038 85.6609753 235.182664 85.25424 236.72129 84.8486602 237.603263 83.2567691 237.155034 81.6991578 236.706402 80.1411614 235.095754 79.2067487 233.557531 79.6130988 232.019307 80.0186786 231.136931 81.6109548 231.585965 83.1685661"/>
    <path fill="#E8E434" d="M150.770634,65.0212045 C148.866435,55.4249691 141.84169,45.7517388 123.726066,44.6156931 L123.726066,44.5583171 C123.726066,44.5535049 123.650721,44.5461016 123.500444,44.54277 C122.904687,44.527223 122.432446,44.5275932 121.856451,44.5353667 C121.280045,44.5275932 120.64641,44.527223 120.051476,44.54277 C119.899964,44.5461016 119.608879,44.5535049 119.608879,44.5583171 L119.608879,44.613102 C100.258098,45.8231812 93.4630926,54.067563 91.9335576,64.8816512 C90.2133967,77.0472227 90.2068092,124.009697 90.2957405,129.247205 C92.0648958,137.404967 151.363097,132.865967 153.42869,125.529977 C153.539442,118.958755 153.369402,78.1192293 150.770634,65.0212045"/>
    <path fill="#31322F" d="M121.860092,107.614458 C100.161212,107.614458 86.2584026,121.717742 84.4635879,134.120482 L159.255773,134.120482 C157.460958,121.717742 143.558561,107.614458 121.860092,107.614458"/>
    <path fill="#EBA783" d="M130.885179,108.558851 C129.622982,108.29193 128.903555,108.206984 127.347891,108.012927 L126.53353,100.483858 L117.518191,100.192771 L117.174369,107.924319 C115.322761,108.088353 114.326377,108.228587 112.849136,108.547867 C112.811988,108.9466 112.84831,109.289679 112.866471,109.701228 C113.087707,114.618575 117.298607,118.426498 122.271449,118.207908 C127.244703,117.988587 131.097334,113.825135 130.876099,108.908155 C130.872797,108.827236 130.890958,108.639037 130.885179,108.558851"/>
    <path fill="#EBA783" d="M148.935973,80.0600375 C149.175272,93.0135632 137.57218,103.687002 123.018981,103.900367 C108.465366,104.113733 96.4734134,93.7853019 96.2341145,80.8317762 L96.07292,72.084541 C95.8332056,59.1310153 107.436713,48.4575763 121.989497,48.2442111 C136.543527,48.0308459 148.53548,58.3589067 148.774363,71.3128022 L148.935973,80.0600375"/>
    <path fill="#EBA783" d="M102.51589,80.4739014 C102.580476,83.9864231 99.4582446,86.8810841 95.5422255,86.9388804 C91.625373,86.9966766 88.3973031,84.1959812 88.3331334,80.6827138 C88.268547,77.1694463 91.3907785,74.2751582 95.3080477,74.2177348 C99.2244835,74.1603114 102.45172,76.9613797 102.51589,80.4739014"/>
    <path fill="#E8E434" d="M106.385435,64.6746988 C106.385435,64.6746988 101.170761,83.2031588 99.4355221,103.373494 L95.4333167,102.796127 C95.4333167,102.796127 93.5458067,77.5171175 96.1861222,64.6746988 L106.385435,64.6746988"/>
    <path fill="#C74787" d="M72.8579136,61.7259525 C72.8537674,63.6144543 74.2004707,65.1486456 75.8660209,65.1517232 L100.781276,65.204812 C102.447241,65.2086591 103.801822,63.6802383 103.806383,61.7913519 C103.810944,59.9028501 102.46424,58.3690436 100.798275,58.3651965 L75.8830206,58.3132618 C74.2166411,58.3090301 72.8624745,59.8374508 72.8579136,61.7259525"/>
    <path fill="#DD4B8D" d="M151.51872,64.6746988 C151.551845,51.8280832 139.762199,41.3928756 125.274209,41.3638092 L118.32067,41.3494599 C103.832265,41.3200256 92.2343205,51.719912 92.2007105,64.5672635 L151.51872,64.6746988"/>
    <path fill="#EBA783" d="M116.701599,60.9638554 L132.174229,60.9068689 C132.255453,57.4114514 129.26252,54.5884003 125.490326,54.6024619 L123.679063,54.6091227 C119.90687,54.6228143 116.783235,57.4680678 116.701599,60.9638554"/>
    <path fill="#FFFFFE" d="M134.754885,88.9182073 L112.188277,88.5301205 C112.188277,88.5301205 116.020017,95.9518072 123.319977,95.9518072 C130.532954,95.9518072 134.434445,90.4077645 134.754885,88.9182073"/>
    <path fill="#0A0B09" d="M132.293005 81.0484587C132.742419 82.6056913 134.35138 83.5404931 135.889529 83.1337561 137.427276 82.7281746 138.310011 81.1366621 137.862206 79.5790443 137.412791 78.0210414 135.803026 77.0862396 134.26367 77.4925914 132.726728 77.8985581 131.84359 79.4904558 132.293005 81.0484587M107.792147 81.0484587C108.240367 82.6056913 109.850179 83.5404931 111.388775 83.1337561 112.926968 82.7281746 113.809327 81.1366621 113.361106 79.5790443 112.912081 78.0210414 111.301867 77.0862396 109.763673 77.4925914 108.22548 77.8985581 107.342719 79.4904558 107.792147 81.0484587"/>
    <polyline fill="#61625E" points="298.524 96.482 230.824 134.12 244.121 134.12 298.524 105.921 298.524 96.482"/>
    <path fill="#31322F" d="M246.298401,127.186297 C228.801604,127.186297 214.567166,139.928104 214.567166,155.590546 C214.567166,171.252619 228.801604,183.994425 246.298401,183.994425 C263.795199,183.994425 278.030049,171.252619 278.030049,155.590546 C278.030049,139.928104 263.795199,127.186297 246.298401,127.186297 M246.298401,191.373494 C224.256146,191.373494 206.323268,175.321068 206.323268,155.590546 C206.323268,135.859286 224.256146,119.807229 246.298401,119.807229 C268.340657,119.807229 286.273535,135.859286 286.273535,155.590546 C286.273535,175.321068 268.340657,191.373494 246.298401,191.373494"/>
    <path fill="#F6CCAC" d="M270.976096,124.641826 C267.090838,126.413425 259.415164,135.295389 265.073923,138.655305 C269.732162,141.421123 281.078173,136.073874 281.115214,132.570505 C281.152256,129.067135 276.870535,121.953451 270.976096,124.641826"/>
    <g transform="translate(0 134.12)">
      <mask id="car-b" fill="#fff">
        <use xlink:href="#car-a"/>
      </mask>
      <path fill="#F0E255" d="M353.440862,45.338571 C353.440862,20.4641539 330.891451,0.299834311 303.075646,0.299834311 L59.5402688,0.299834311 C31.7232232,0.299834311 9.17463895,20.4641539 9.17463895,45.338571 L9.17463895,105.974238 L353.440862,105.974238 L353.440862,45.338571" mask="url(#car-b)"/>
      <path fill="#BFBFBA" d="M362.614674,103.561884 C362.614674,100.009346 359.392739,97.1282011 355.419998,97.1282011 L7.19467654,97.1282011 C3.22152164,97.1282011 0,100.009346 0,103.561884 L0,118.282972 L362.614674,118.282972 L362.614674,103.561884" mask="url(#car-b)"/>
      <path fill="#979791" d="M7.19467654,128.010396 L355.419998,128.010396 C359.392739,128.010396 362.614674,125.129251 362.614674,121.575974 L362.614674,118.282972 L0,118.282972 L0,121.575974 C0,125.129251 3.22152164,128.010396 7.19467654,128.010396" mask="url(#car-b)"/>
    </g>
    <path fill="#FFFFFE" d="M242.42984,250.181385 C242.42984,253.714363 239.210308,256.578313 235.23929,256.578313 L127.75947,256.578313 C123.788453,256.578313 120.57016,253.714363 120.57016,250.181385 L120.57016,232.758374 C120.57016,229.225397 123.788453,226.361446 127.75947,226.361446 L235.23929,226.361446 C239.210308,226.361446 242.42984,229.225397 242.42984,232.758374 L242.42984,250.181385"/>
    <path fill="#DCCC54" d="M255.325044,183.156627 C255.325044,202.040647 222.128204,217.349398 181.17762,217.349398 C140.227449,217.349398 107.030195,202.040647 107.030195,183.156627 C107.030195,164.272606 140.227449,148.963855 181.17762,148.963855 C222.128204,148.963855 255.325044,164.272606 255.325044,183.156627"/>
    <g transform="translate(202.455 156.386)">
      <mask id="car-d" fill="#fff">
        <use xlink:href="#car-c"/>
      </mask>
      <polygon fill="#898C52" points=".242 53.807 7.722 53.807 7.722 .36 .242 .36" mask="url(#car-d)"/>
    </g>
    <path fill="#898C52" d="M181.400826 211.518072C179.807856 211.518072 178.229557 211.494318 176.664298 211.449779L176.664298 155.392852C178.229557 155.349055 179.807856 155.325301 181.400826 155.325301 182.189772 155.325301 182.97342 155.332353 183.756661 155.343488L183.756661 211.499885C182.97342 211.510649 182.189772 211.518072 181.400826 211.518072M215.349911 207.807229L215.349911 159.036145C217.812265 159.599313 220.180462 160.223044 222.442274 160.9018L222.442274 205.941943C220.180462 206.620699 217.812265 207.244061 215.349911 207.807229M118.635879 195.614458C114.098856 191.861539 111.543517 187.632471 111.543517 183.156812 111.543517 178.680412 114.098856 174.451344 118.635879 170.698795L118.635879 195.614458M189.559503 210.987952L189.559503 155.325301C191.963831 155.440059 194.329854 155.604792 196.651865 155.818019L196.651865 210.494494C194.329854 210.708091 191.963831 210.872824 189.559503 210.987952M228.245115 204.096386L228.245115 162.746988C230.794519 163.700447 233.164617 164.732405 235.337478 165.832123L235.337478 201.01051C233.164617 202.110598 230.794519 203.142556 228.245115 204.096386M170.861456 210.457831C168.453183 210.309009 166.087704 210.108245 163.769094 209.859962L163.769094 155.92317C166.087704 155.675255 168.453183 155.474124 170.861456 155.325301L170.861456 210.457831M131.531083 202.506024C128.951116 201.450467 126.578166 200.311392 124.438721 199.100205L124.438721 166.682928C126.578166 165.470637 128.951116 164.332666 131.531083 163.277108L131.531083 202.506024M241.14032 197.73494L241.14032 169.108434C247.282391 173.302133 250.811723 178.19472 250.811723 183.421687 250.811723 188.64791 247.282391 193.540497 241.14032 197.73494M144.426288 207.277108C141.953355 206.654917 139.585566 205.97021 137.333925 205.229647L137.333925 161.612987C139.585566 160.872423 141.953355 160.187717 144.426288 159.566265L144.426288 207.277108M157.966252 209.927711C155.535156 209.569921 153.168454 209.157086 150.87389 208.692926L150.87389 158.150447C153.168454 157.686659 155.535156 157.273453 157.966252 156.915663L157.966252 209.927711"/>
    <path fill="#F0E255" d="M43.1989343,103.638186 C43.1989343,110.226037 37.1637254,115.566265 29.7202873,115.566265 L15.4133436,115.566265 C7.96948949,115.566265 1.93428064,110.226037 1.93428064,103.638186 C1.93428064,97.051071 7.96948949,91.7108434 15.4133436,91.7108434 L29.7202873,91.7108434 C37.1637254,91.7108434 43.1989343,97.051071 43.1989343,103.638186"/>
    <polyline fill="#F0E255" points="55.449 110.265 32.883 104.803 32.883 99.663 55.449 99.663 55.449 110.265"/>
    <path fill="#F0E255" d="M319.156306,103.638186 C319.156306,110.226037 325.191037,115.566265 332.634817,115.566265 L346.942448,115.566265 C354.385395,115.566265 360.420959,110.226037 360.420959,103.638186 C360.420959,97.051071 354.385395,91.7108434 346.942448,91.7108434 L332.634817,91.7108434 C325.191037,91.7108434 319.156306,97.051071 319.156306,103.638186"/>
    <polyline fill="#F0E255" points="306.906 110.265 329.472 104.803 329.472 99.663 306.906 99.663 306.906 110.265"/>
    <path fill="#BFBFBA" d="M92.8454707,188.988137 C92.8454707,202.602121 80.5771503,213.638554 65.4431616,213.638554 C50.3087613,213.638554 38.0408526,202.602121 38.0408526,188.988137 C38.0408526,175.373783 50.3087613,164.337349 65.4431616,164.337349 C80.5771503,164.337349 92.8454707,175.373783 92.8454707,188.988137"/>
    <path fill="#FFFFFE" d="M65.4429539,167.591869 C52.1870747,167.591869 41.4028842,177.190191 41.4028842,188.987582 C41.4028842,200.785712 52.1870747,210.383295 65.4429539,210.383295 C78.6988331,210.383295 89.4834391,200.785712 89.4834391,188.987582 C89.4834391,177.190191 78.6988331,167.591869 65.4429539,167.591869 Z M65.4429539,216.819277 C48.2001317,216.819277 34.1722913,204.33336 34.1722913,188.987582 C34.1722913,173.641804 48.2001317,161.156627 65.4429539,161.156627 C82.6857761,161.156627 96.714032,173.641804 96.714032,188.987582 C96.714032,204.33336 82.6857761,216.819277 65.4429539,216.819277 Z"/>
    <path fill="#DC4646" d="M38.0408526,215.493415 C38.0408526,220.617624 33.4213645,224.771084 27.7248972,224.771084 C22.0280138,224.771084 17.4085258,220.617624 17.4085258,215.493415 C17.4085258,210.370328 22.0280138,206.216867 27.7248972,206.216867 C33.4213645,206.216867 38.0408526,210.370328 38.0408526,215.493415"/>
    <path fill="#BFBFBA" d="M270.154529,188.988137 C270.154529,202.602121 282.422758,213.638554 297.556221,213.638554 C312.690919,213.638554 324.959147,202.602121 324.959147,188.988137 C324.959147,175.373783 312.690919,164.337349 297.556221,164.337349 C282.422758,164.337349 270.154529,175.373783 270.154529,188.988137"/>
    <path fill="#FFFFFE" d="M273.516145,188.987582 C273.516145,200.785712 284.300751,210.383295 297.556215,210.383295 C310.81251,210.383295 321.597116,200.785712 321.597116,188.987582 C321.597116,177.190191 310.81251,167.591869 297.556215,167.591869 C284.300751,167.591869 273.516145,177.190191 273.516145,188.987582 Z M266.285968,188.987582 C266.285968,173.641804 280.313808,161.156627 297.556215,161.156627 C314.799453,161.156627 328.827709,173.641804 328.827709,188.987582 C328.827709,204.33336 314.799453,216.819277 297.556215,216.819277 C280.313808,216.819277 266.285968,204.33336 266.285968,188.987582 Z"/>
    <path fill="#DC4646" d="M324.959147,215.493415 C324.959147,220.617624 329.57799,224.771084 335.275103,224.771084 C340.972632,224.771084 345.591474,220.617624 345.591474,215.493415 C345.591474,210.370328 340.972632,206.216867 335.275103,206.216867 C329.57799,206.216867 324.959147,210.370328 324.959147,215.493415"/>
    <path fill="#31322F" d="M206.968028,48.2411506 C206.968028,53.8040698 201.996096,58.313253 195.863716,58.313253 L166.491524,58.313253 C160.358732,58.313253 155.387211,53.8040698 155.387211,48.2411506 C155.387211,42.6782314 160.358732,38.1686747 166.491524,38.1686747 L195.863716,38.1686747 C201.996096,38.1686747 206.968028,42.6782314 206.968028,48.2411506"/>
    <polygon fill="#31322F" points="178.599 49.301 183.757 49.301 183.757 30.747 178.599 30.747"/>
    <path fill="#E0E0DB" d="M56.955109 191.903614C54.741447 191.903614 52.7157643 191.199224 51.3283945 189.766013 48.3194978 186.656775 49.4567733 181.29593 53.8693859 177.792115 56.2477342 175.903253 59.0923533 174.939759 61.6807482 174.939759 63.8944102 174.939759 65.9200928 175.64415 67.3074627 177.07736 70.3163594 180.186598 69.1790839 185.547443 64.7668799 189.051259 62.3885316 190.939751 59.5430952 191.903614 56.955109 191.903614M288.423934 191.903614C286.21027 191.903614 284.184585 191.199224 282.797623 189.766013 279.788315 186.656775 280.925591 181.29593 285.338208 177.792115 287.71615 175.903253 290.56118 174.939759 293.149169 174.939759 295.362833 174.939759 297.388926 175.64415 298.775888 177.07736 301.785605 180.186598 300.64792 185.547443 296.235712 189.051259 293.857361 190.939751 291.011922 191.903614 288.423934 191.903614"/>
    <path fill="#A8AB70" d="M199.230906,134.120482 L146.485064,134.120482 L158.972776,134.120482 C158.963305,134.0566 158.953835,133.992717 158.943953,133.928835 L199.177789,133.928835 L199.230906,134.120482 M154.843283,123.818065 C154.401469,123.155239 153.927127,122.500537 153.42108,121.856174 C153.441668,109.993255 153.052148,76.4468858 150.739319,64.8188171 C150.73726,64.8081085 150.735201,64.7977692 150.733142,64.7870606 L150.880551,64.7874298 C150.895374,59.0756811 148.608074,53.8399115 144.805103,49.775811 L144.426288,30.746988 L170.408041,30.746988 L172.54258,38.4014254 L166.108905,38.4014254 C159.974576,38.4014254 155.001808,42.8610058 155.001808,48.362275 C155.001808,53.8635443 159.974576,58.3227554 166.108905,58.3227554 L175.50063,58.3227554 C164.632351,61.4204965 160.420095,70.2122618 160.033457,75.6695888 C159.953577,76.7999006 159.919813,79.1303147 159.905401,81.0405084 C156.71224,81.2022453 154.17171,83.5740168 154.156475,86.4871268 C154.14124,89.5143389 156.858413,91.9787952 160.225747,91.9928272 C160.235217,91.9931965 160.244688,91.9931965 160.254158,91.9931965 C160.511505,91.9931965 160.764734,91.9787952 161.013846,91.9507313 C163.624374,99.3983819 170.550509,105.060649 179.019902,106.438367 L178.818965,111.013896 C177.211884,111.157539 176.346787,111.280872 175.064581,111.560773 C175.064169,111.566312 175.063757,111.57222 175.063346,111.577759 C165.977144,113.378651 159.038245,118.187554 154.843283,123.818065 M193.089577,112.094357 C191.360205,111.640165 189.544776,111.296751 187.646997,111.08184 L187.148361,106.420642 C188.551623,106.186161 189.911238,105.833885 191.216091,105.375261 L193.089577,112.094357"/>
    <path fill="#CDCCC7" d="M199.875666,134.120482 L159.502121,134.120482 C158.983574,130.772237 157.583703,127.306833 155.387211,124.032642 C159.59674,118.4149 166.559734,113.616904 175.677487,111.820096 C175.647738,112.162362 175.678313,112.458208 175.694014,112.813001 C175.8816,116.999412 179.35566,120.26734 183.530481,120.267709 C183.648239,120.267709 183.765996,120.26513 183.884994,120.259603 C188.216412,120.067654 191.571887,116.422827 191.37893,112.11852 C191.375624,112.047782 191.391739,111.883096 191.38678,111.812727 C190.287708,111.579146 189.66132,111.504724 188.30566,111.33488 L188.304833,111.325301 C190.209203,111.539724 192.030936,111.88236 193.766313,112.335522 L199.875666,134.120482"/>
    <path fill="#A48375" d="M183.115964 120.337349C179.007133 120.336976 175.587986 117.023346 175.403365 112.778387 175.387912 112.418632 175.35782 112.11865 175.387099 111.771597 175.387506 111.765993 175.387912 111.760016 175.388319 111.754412 176.65464 111.471241 177.50902 111.346466 179.09619 111.201144L179.294637 106.572149C180.58251 106.786582 181.906169 106.898655 183.255853 106.898655 183.260733 106.898655 183.266426 106.898655 183.271306 106.898655 184.65271 106.897534 186.006867 106.779484 187.322393 106.554217L187.814851 111.269882 187.815664 111.279595C189.149896 111.451815 189.766383 111.527277 190.848083 111.764125 190.852962 111.835478 190.837103 112.002467 190.840356 112.074194 191.030264 116.438697 187.727827 120.134497 183.464873 120.329131 183.347757 120.334734 183.231861 120.337349 183.115964 120.337349M171.224823 94.8915663C167.737255 94.8915663 165.632109 92.976455 164.364129 90.7747638 165.616353 89.7713628 166.407907 88.3139627 166.416615 86.6887723 166.429054 84.3341395 164.792041 82.3169434 162.479574 81.5191969 162.706384 76.8336891 164.112026 67.8554217 171.564001 67.8554217 172.40324 67.8554217 173.320846 67.9693855 174.320137 68.2162451 176.665362 68.7957157 178.998976 69.1765849 181.311029 69.3024277L187.625222 91.9103182C186.400779 91.5183125 185.061895 91.2450964 183.572495 91.2450964 183.52025 91.2450964 183.46759 91.2454676 183.415345 91.24621 178.277911 91.3122868 174.382334 94.8303154 171.42012 94.889339 171.354606 94.8908238 171.289507 94.8915663 171.224823 94.8915663M173.006546 85.8134414C172.789273 85.8134414 172.569512 85.8394266 172.351409 85.8932531 170.972719 86.2332884 170.181165 87.5685579 170.583783 88.8748724 170.922133 89.9736763 171.998133 90.7031188 173.152501 90.7031188 173.369774 90.7031188 173.58995 90.6771335 173.808467 90.623307 175.187986 90.2832717 175.978712 88.9487447 175.576922 87.6424302 175.238158 86.5428838 174.161329 85.8134414 173.006546 85.8134414"/>
    <path fill="#A48375" d="M160.868084,92.2409639 C160.85857,92.2409639 160.849056,92.2409639 160.839543,92.2405885 C157.456809,92.2263262 154.727211,89.7214037 154.742515,86.6444851 C154.75782,83.6835421 157.309968,81.2728263 160.517732,81.1084337 C160.505737,82.7715011 160.507805,84.1207963 160.507805,84.1207963 L160.514837,84.1211716 C160.517319,84.262294 160.514837,84.4056684 160.508632,84.5494181 L160.509046,85.5429047 C160.5107,87.8650437 160.904484,90.1008578 161.631246,92.1978014 C161.380995,92.2263262 161.126608,92.2409639 160.868084,92.2409639 M164.945316,90.8267373 C163.234508,87.81475 163.052094,84.2716772 163.052094,84.2716772 C163.052094,84.2716772 162.985084,83.1408214 163.06533,81.4687462 C165.37219,82.2753208 167.005234,84.3148396 166.992825,86.6955294 C166.984139,88.3387045 166.194503,89.8122324 164.945316,90.8267373"/>
    <path fill="#887168" d="M183.237023,107.084337 C181.858473,107.084337 180.506506,106.97337 179.19109,106.761054 C170.647737,105.380996 163.66112,99.7091104 161.027795,92.248809 C160.298024,90.1822363 159.90261,87.9788045 159.900948,85.6902981 L159.900533,84.7112006 C159.906763,84.5695329 159.909255,84.4282351 159.906763,84.2891566 L162.454526,84.4374823 C162.454526,84.4374823 162.637695,87.9292393 164.355587,90.8976026 C165.62573,93.0914173 167.734466,94.9996772 171.227982,94.9996772 C171.292777,94.9996772 171.357987,94.9989374 171.423613,94.9974579 C174.39088,94.9386455 178.293101,91.4332026 183.439299,91.3673623 C183.491633,91.3666225 183.544383,91.3662526 183.596717,91.3662526 C185.088657,91.3662526 186.429825,91.6384913 187.656356,92.0290946 L188.737515,95.8785347 L174.351837,95.6395861 C174.351837,95.6395861 177.726978,101.95397 184.156194,101.95397 C186.514141,101.95397 188.470859,101.303704 190.013057,100.421518 L191.493783,105.696142 C190.177536,106.155545 188.806048,106.508419 187.390532,106.743299 C186.046872,106.966343 184.663753,107.083228 183.252806,107.084337 C183.247822,107.084337 183.242007,107.084337 183.237023,107.084337"/>
    <path fill="#685A54" d="M162.437046,84.2891566 L159.907678,84.1402454 L159.900668,84.1398741 C159.900668,84.1398741 159.898607,82.8048723 159.910565,81.1594223 C159.924997,79.2384309 159.95881,76.8948436 160.038806,75.7581426 C160.426005,70.269967 164.644366,61.4285047 175.528397,58.313253 L178.128689,58.313253 L181.17762,69.294803 C178.878345,69.1689155 176.557628,68.7879108 174.225365,68.2082341 C173.231597,67.9612866 172.319062,67.8472823 171.484461,67.8472823 C164.073671,67.8472823 162.675797,76.8287434 162.450241,81.5159179 C162.370245,83.1702803 162.437046,84.2891566 162.437046,84.2891566"/>
    <path fill="#FFFFFE" d="M184.417324,101.783133 C178.064864,101.783133 174.730018,95.4216867 174.730018,95.4216867 L188.943949,95.6624163 L190.204263,100.239259 C188.680477,101.12802 186.74712,101.783133 184.417324,101.783133"/>
    <path fill="#2D2E2C" d="M173.512177,90.6506024 C172.367704,90.6506024 171.300927,89.9388517 170.965478,88.8666979 C170.56631,87.5920664 171.35108,86.2891822 172.717952,85.9573941 C172.934185,85.9048731 173.152062,85.8795181 173.367473,85.8795181 C174.512357,85.8795181 175.579956,86.5912688 175.915816,87.664147 C176.314162,88.9387785 175.530214,90.2409382 174.16252,90.5727264 C173.945876,90.6252474 173.727588,90.6506024 173.512177,90.6506024"/>
    <path fill="#EBE859" d="M153.452183,121.927711 C151.49283,119.408526 149.056525,117.047879 146.182126,114.997639 L145.715808,91.3456051 C147.754517,87.9211293 148.88186,83.9891866 148.806186,79.822772 L148.647065,71.060633 C148.606978,68.8414839 148.228606,66.700492 147.556536,64.6746988 L150.7819,64.6806254 C150.783946,64.6913674 150.785991,64.701739 150.788036,64.712481 C153.085674,76.3768122 153.472635,110.027796 153.452183,121.927711"/>
    <path fill="#585855" d="M159.255773,134.120482 L146.743431,134.120482 L146.360568,115.036145 C149.259679,117.070577 151.71693,119.413023 153.693127,121.912784 C154.200173,122.554172 154.67545,123.205852 155.118135,123.865619 C157.311343,127.132105 158.709121,130.589354 159.226893,133.929719 C159.236795,133.993307 159.246284,134.056894 159.255773,134.120482"/>
    <path fill="#EFB89A" d="M145.633207,91.1807229 L145.071048,64.6746988 L147.600328,64.6791155 C148.318545,66.6920496 148.722898,68.8194511 148.765738,71.0245138 L148.935784,79.7310333 C149.016655,83.8710008 147.811903,87.7779847 145.633207,91.1807229"/>
    <path fill="#E26E9F" d="M150.873821,64.6746988 L150.733029,64.6743337 L147.632055,64.6684917 L145.356566,64.6641102 L145.071048,49.8313253 C148.703336,53.8498767 150.887979,59.0269655 150.873821,64.6746988"/>
    <path fill="#585855" d="M178.598579,58.313253 L166.550104,58.313253 C160.384959,58.313253 155.387211,53.8040698 155.387211,48.2411506 C155.387211,42.6782314 160.384959,38.1686747 166.550104,38.1686747 L173.016098,38.1686747 L178.598579,58.313253"/>
    <path fill="#A8AB70" d="M212.097888,124.578313 C211.196192,123.303359 210.155042,122.066066 208.980644,120.890804 L202.514006,97.8153448 C204.012419,95.8587899 205.16323,93.6618656 205.882434,91.3002643 C205.883262,91.3002643 205.88409,91.3002643 205.885331,91.3002643 C205.895676,91.3002643 205.905608,91.3002643 205.915539,91.3002643 C209.286037,91.3002643 212.025471,88.8629707 212.04161,85.8452459 C212.055679,83.0405675 209.711022,80.7181047 206.673229,80.3821045 C206.649228,78.5318881 206.602881,76.3744715 206.513498,75.3011171 C206.080237,70.0768681 201.674796,62.0316945 191.579856,58.7968619 L191.493783,58.4896618 L196.008884,58.4896618 C198.367612,58.4896618 200.555435,57.8372306 202.357999,56.7228916 L223.731794,113.520215 C218.688255,116.512463 214.752905,120.40748 212.097888,124.578313"/>
    <path fill="#CDCCC7" d="M210.681327,127.228916 L208.902309,120.86747 C210.116851,122.085717 211.193592,123.368263 212.12611,124.689849 C211.594159,125.526891 211.11228,126.375033 210.681327,127.228916"/>
    <path fill="#A48375" d="M205.713163 91.1807229C205.702766 91.1807229 205.69237 91.1807229 205.68154 91.1807229 205.680241 91.1807229 205.679374 91.1807229 205.678508 91.1807229 206.262442 89.3122499 206.574336 87.3425036 206.573036 85.3080027L206.571304 83.9127657C206.548778 83.7245254 206.534483 83.539297 206.533617 83.3608452 206.533617 83.3608452 206.530584 81.8470169 206.506326 80.0481928 209.686342 80.3907901 212.140773 82.7588528 212.126044 85.6185991 212.10915 88.6955747 209.241461 91.1807229 205.713163 91.1807229M201.158318 92.2409639L194.072824 67.3744307C194.412935 67.3411852 194.74168 67.3253012 195.059481 67.3253012 205.195446 67.3253012 204.372951 83.5941761 204.372951 83.5941761 204.372951 83.5941761 204.273612 89.068234 201.158318 92.2409639"/>
    <path fill="#887168" d="M202.68927,98.0722892 L201.165187,92.6548928 C204.268279,89.454754 204.367229,83.9334063 204.367229,83.9334063 L206.92987,83.7590361 C206.930709,83.9356418 206.944545,84.1189539 206.966347,84.3052468 L206.968025,85.6860495 C206.969282,87.6995027 206.667401,89.6488712 206.102211,91.4980141 C205.373502,93.8810724 204.207484,96.0979574 202.68927,98.0722892"/>
    <path fill="#685A54" d="M203.842555,83.7590361 C203.842555,83.7590361 204.635637,67.5567001 194.862147,67.5567001 C194.555711,67.5567001 194.238721,67.5725191 193.910774,67.6056286 L191.493783,58.8433735 C201.395124,62.066403 205.716078,70.082222 206.14103,75.2874092 C206.228699,76.3568472 206.274157,78.506392 206.297698,80.3498574 C206.320427,82.107606 206.323268,83.5868666 206.323268,83.5868666 L203.842555,83.7590361"/>
    <path fill="#FFFFFE" d="M230.883,134.120482 L225.974819,134.120482 C227.378216,133.033559 228.889155,132.054373 230.491565,131.197998 L231.468917,133.795802 L230.883,134.120482 M214.778957,134.120482 L212.860102,134.120482 L210.83659,126.897372 C211.251511,126.077032 211.715464,125.262208 212.227626,124.458047 C214.871253,120.304501 218.789723,116.425628 223.811626,113.445783 L227.819507,124.096965 C222.701187,126.563133 218.252015,129.995617 214.778957,134.120482"/>
    <polyline fill="#7E7F7B" points="231.469 134.589 230.824 134.589 231.358 134.12 231.469 134.589"/>
    <path fill="#585855" d="M225.731169,134.120482 L214.705151,134.120482 C218.125522,129.975547 222.507199,126.52636 227.547874,124.048193 L230.179396,131.183778 C228.601294,132.044319 227.113277,133.02827 225.731169,134.120482"/>
    <polyline fill="#F3E874" points="231.469 134.12 212.771 134.12 231.469 134.12"/>
    <polyline fill="#A8AB70" points="195.362 38.169 185.873 38.169 183.757 30.747 192.52 30.747 195.362 38.169"/>
    <path fill="#585855" d="M195.587274,58.313253 L191.162091,58.313253 L185.690941,38.1686747 L195.114784,38.1686747 L201.809947,56.5265321 C200.04328,57.6534545 197.899028,58.313253 195.587274,58.313253"/>
    <polyline fill="#61625E" points="64.476 96.482 132.176 134.12 118.878 134.12 64.476 105.921 64.476 96.482"/>
  </g>
</svg>
