<svg xmlns="http://www.w3.org/2000/svg" xmlns:xlink="http://www.w3.org/1999/xlink" width="377" height="69" viewBox="0 0 377 69">
  <defs>
    <polygon id="gdt_logo-a" points="0 .642 68.208 .642 68.208 68.593 0 68.593"/>
  </defs>
  <g fill="none" fill-rule="evenodd">
    <g fill="#4E2B65" transform="translate(74.156 .217)">
      <path d="M10.4319995 60.0812929L13.8104008 60.0812929C15.7030988 60.0812929 17.0784306 59.4688093 17.9363962 58.2455601 18.7926373 57.0214519 19.2220512 54.78026 19.2220512 51.5168305L19.1823865 18.2898089C19.1823865 14.7978791 18.7546971 12.3127247 17.8975938 10.8334866 17.0404904 9.35596647 15.5616854 8.61548838 13.4646277 8.61548838L10.4319995 8.61548838 10.4319995 60.0812929zM.146759545 68.0349897L.146759545.739103655 15.3064514.739103655C20.2705801.739103655 23.8714488 2.19944328 26.1107822 5.11754546 28.3492532 8.03736569 29.4693511 12.3376364 29.4693511 18.0226526L29.5081535 48.3813954C29.5081535 55.1616664 28.3811575 60.1328343 26.1297522 63.293181 23.8774847 66.4543868 20.1550349 68.0349897 14.9615406 68.0349897L.146759545 68.0349897zM52.343749 60.5393241C53.9294764 60.5393241 55.011634 59.8452333 55.5859105 58.4561926 56.1627738 57.0654339 56.449912 54.9960467 56.449912 52.242877L56.449912 26.5872868C56.449912 23.7834348 56.1550133 21.6805457 55.5678026 20.2786197 54.9780052 18.8766936 53.8906739 18.1748716 52.3049465 18.1748716 50.7183568 18.1748716 49.6310255 18.8698214 49.0429526 20.2588621 48.4540174 21.6487618 48.159981 23.7576641 48.159981 26.5872868L48.159981 52.242877C48.159981 56.4486551 48.8506649 59.023148 50.2328949 59.9654965 50.7950995 60.3486209 51.4995798 60.5393241 52.343749 60.5393241M52.343749 68.7215211C46.9191644 68.7215211 43.1579121 67.1031212 41.0599922 63.8663214 38.9620723 60.6295216 37.9126812 55.9521396 37.9126812 49.8333166L37.9126812 28.3835046C37.9126812 16.1235239 42.7095281 9.99267455 52.3049465 9.99267455 61.9003649 9.99267455 66.6980741 16.1235239 66.6980741 28.3835046L66.6980741 49.8333166C66.6980741 59.393387 64.2276505 65.2682474 59.2902524 67.4604749 57.3966922 68.3014587 55.0814784 68.7215211 52.343749 68.7215211"/>
      <polygon points="100.971 68.035 95.137 24.942 88.92 68.035 80.323 68.035 72.608 10.681 81.167 10.681 84.084 34.884 85.389 47.195 85.619 47.195 86.886 34.846 90.302 10.681 99.359 10.681 103.12 34.387 104.732 47.195 104.963 47.195 106.076 34.426 108.647 10.681 117.167 10.681 109.876 68.035"/>
      <path d="M143.420118 9.99284635C150.072585 9.99284635 153.398388 14.2879629 153.398388 22.877337L153.398388 68.0344743 143.228693 68.0344743 143.228693 23.4898206C143.228693 21.8327646 142.849291 20.5339214 142.095661 19.5907138 141.341168 18.6466472 140.246939 18.1750434 138.814697 18.1750434 137.38073 18.1750434 136.248561 18.7858089 135.418188 20.0099172 134.585228 21.2331664 134.169611 22.877337 134.169611 24.942429L134.169611 68.0344743 123.999916 68.0344743 123.999916 10.680924 134.169611 10.680924 134.169611 17.2576065C134.680941 15.2182851 135.781206 13.4985205 137.470407 12.0957354 139.16047 10.6938094 141.141982 9.99284635 143.420118 9.99284635M173.624992 68.4165679C170.043093 68.4165679 167.638202 67.7345034 166.409458 66.3712334 165.180713 65.0071043 164.567634 62.6430722 164.567634 59.2774189L164.567634 19.2074176 159.884608 19.2074176 159.884608 11.8662044 164.567634 11.8662044 164.567634.702337458 174.737329.702337458 174.737329 11.8662044 180.342129 11.8662044 180.342129 19.2074176 174.737329 19.2074176 174.737329 57.5198572C174.737329 58.8711008 175.09 59.7378554 175.794481 60.1201207 176.496374 60.5006681 178.07779 60.6930893 180.534417 60.6930893L180.534417 68.4165679 173.624992 68.4165679zM201.489042 60.5393241C203.074769 60.5393241 204.156927 59.8452333 204.732065 58.4561926 205.308066 57.0654339 205.596929 54.9960467 205.596929 52.242877L205.596929 26.5872868C205.596929 23.7834348 205.301168 21.6805457 204.713095 20.2786197 204.123298 18.8766936 203.036829 18.1748716 201.450239 18.1748716 199.863649 18.1748716 198.776318 18.8698214 198.188245 20.2588621 197.600172 21.6487618 197.304411 23.7576641 197.304411 26.5872868L197.304411 52.242877C197.304411 56.4486551 197.995957 59.023148 199.378187 59.9654965 199.941254 60.3486209 200.644872 60.5393241 201.489042 60.5393241M201.489042 68.7215211C196.065319 68.7215211 192.304067 67.1031212 190.205285 63.8663214 188.107365 60.6295216 187.057974 55.9521396 187.057974 49.8333166L187.057974 28.3835046C187.057974 16.1235239 191.854821 9.99267455 201.450239 9.99267455 211.04652 9.99267455 215.842504 16.1235239 215.842504 28.3835046L215.842504 49.8333166C215.842504 59.393387 213.373805 65.2682474 208.436407 67.4604749 206.541122 68.3014587 204.226771 68.7215211 201.489042 68.7215211"/>
      <polygon points="250.116 68.035 244.283 24.942 238.065 68.035 229.469 68.035 221.753 10.681 230.313 10.681 233.229 34.884 234.534 47.195 234.765 47.195 236.032 34.846 239.448 10.681 248.505 10.681 252.266 34.387 253.877 47.195 254.108 47.195 255.221 34.426 257.793 10.681 266.314 10.681 259.021 68.035"/>
      <path d="M292.565325,9.99284635 C299.217792,9.99284635 302.543594,14.2879629 302.543594,22.877337 L302.543594,68.0344743 L292.373037,68.0344743 L292.373037,23.4898206 C292.373037,21.8327646 291.99536,20.5339214 291.240867,19.5907138 C290.487237,18.6466472 289.392145,18.1750434 287.959903,18.1750434 C286.525937,18.1750434 285.394629,18.7858089 284.562532,20.0099172 C283.730435,21.2331664 283.315679,22.877337 283.315679,24.942429 L283.315679,68.0344743 L273.14426,68.0344743 L273.14426,10.680924 L283.315679,10.680924 L283.315679,17.2576065 C283.826147,15.2182851 284.927275,13.4985205 286.616476,12.0957354 C288.305676,10.6938094 290.288051,9.99284635 292.565325,9.99284635"/>
    </g>
    <g transform="translate(0 .217)">
      <mask id="gdt_logo-b" fill="#fff">
        <use xlink:href="#gdt_logo-a"/>
      </mask>
      <path fill="#CED41E" d="M56.8909667,49.6530935 L54.0006142,49.6530935 C52.0596287,49.6530935 50.7963929,49.302612 50.20832,48.60079 C49.6202471,47.900686 49.3270729,46.6722826 49.3270729,44.91558 L49.3270729,22.1849642 L46.5186367,22.1849642 L46.5186367,19.0804539 L49.3270729,19.0804539 L49.3270729,13.5260092 L53.529811,13.5260092 L53.529811,19.0804539 L56.851302,19.0804539 L56.851302,22.1849642 L53.529811,22.1849642 L53.529811,44.547059 C53.529811,45.3365014 53.713476,45.8321578 54.0833928,46.0280152 C54.4507228,46.2264495 55.3880179,46.3243782 56.8909667,46.3243782 L56.8909667,49.6530935 Z M43.2178404,34.2954748 L34.0345904,34.2954748 L34.0345904,40.4014125 C34.0345904,43.0566535 34.2458482,44.7119914 34.6692262,45.3648492 C35.0934665,46.0168479 35.7625935,46.3449948 36.6791939,46.3449948 C37.5949321,46.3449948 38.2062865,45.9644474 38.5132571,45.1999167 C38.8202277,44.4396811 38.9806112,43.6124416 38.9952699,42.7190574 C39.0090664,41.8282502 39.0159646,41.0757458 39.0159646,40.4632622 L39.0159646,37.9918521 L43.1359241,37.9918521 L43.1359241,39.2992856 C43.1359241,42.5524068 42.9074207,44.8339728 42.4486893,46.1405472 C41.9908202,47.4471217 41.2975495,48.3920473 40.3680149,48.9684519 C39.4384803,49.5474337 38.2882028,49.8369245 36.9137333,49.8369245 C35.540126,49.8369245 34.4407228,49.6634018 33.6137992,49.3154974 C32.7868756,48.9684519 32.1298205,48.5088745 31.6452208,47.937624 C31.1614834,47.3646554 30.733794,46.4532317 30.3638772,45.1999167 C29.9956849,43.9491787 29.8102954,41.9339101 29.8102954,39.1558287 L29.8102954,28.331276 C29.8102954,24.4665301 30.5078775,21.7769281 31.9013171,20.2650471 C32.9946843,19.0675686 34.6080046,18.4671113 36.7404156,18.4671113 C39.8273672,18.4671113 41.7683527,19.7951613 42.5616476,22.4504024 C42.998822,23.94768 43.2178404,25.9698209 43.2178404,28.516825 L43.2178404,34.2954748 Z M24.3779503,46.610433 C24.3779503,50.259564 22.9974448,52.5952484 20.2372962,53.614909 C19.2793064,53.9688266 18.1738673,54.1457854 16.9158052,54.1457854 C14.4014055,54.1457854 12.317282,53.4920687 10.6634347,52.1854942 L12.1801799,49.3266647 C13.6701946,50.33344 15.2472992,50.8376867 16.9158052,50.8376867 C18.0229688,50.8376867 18.8429943,50.4915003 19.3767437,49.7956914 C19.9087686,49.1016006 20.1752122,48.1687012 20.1752122,46.9978525 L20.1752122,44.0780322 C19.8061577,45.0315481 19.2931029,45.691278 18.6377723,46.059799 C17.9539867,46.426602 17.108093,46.610433 16.0957798,46.610433 C14.0461473,46.610433 12.6389113,45.7471145 11.8732093,44.0161826 C11.1083696,42.2878277 10.7246564,39.9658877 10.7246564,37.0529396 L10.7246564,28.2702853 C10.7246564,21.734836 12.6233903,18.4671113 16.4243073,18.4671113 C18.3514964,18.4671113 19.6009358,19.33902 20.1752122,21.0811192 L20.1752122,18.8356323 L24.3779503,18.8356323 L24.3779503,46.610433 Z M34.1052971,0.641518607 C15.2679938,0.641518607 -0.000344910798,15.8539624 -0.000344910798,34.6176085 C-0.000344910798,53.3812547 15.2679938,68.5928394 34.1052971,68.5928394 C52.9400135,68.5928394 68.2083523,53.3812547 68.2083523,34.6176085 C68.2083523,15.8539624 52.9400135,0.641518607 34.1052971,0.641518607 Z" mask="url(#gdt_logo-b)"/>
      <path fill="#CED41E" d="M17.7255695 21.9600719C16.8167296 21.9600719 16.1777823 22.2186379 15.80959 22.736629 15.4396732 23.253761 15.2051339 23.8997465 15.1016606 24.6771626 14.9999119 25.4520016 14.947313 26.4330063 14.947313 27.6167404L14.947313 37.1544762C14.947313 39.3192149 15.146499 40.8817783 15.5431464 41.8413074 15.9389316 42.8008364 16.6839389 43.2818894 17.7764439 43.2818894 18.3515826 43.2818894 18.8016912 43.117816 19.1293565 42.7913871 19.8140044 42.1256441 20.1606397 40.2314977 20.1752985 37.1141021L20.1752985 27.6579735C20.1752985 25.6710526 19.9942203 24.2244573 19.6320639 23.3190468 19.2707699 22.4119181 18.6344095 21.9600719 17.7255695 21.9600719M38.174296 22.4298717C37.9285471 22.0896985 37.4844744 21.9196119 36.842078 21.9196119 35.6116088 21.9196119 34.8329726 22.4333078 34.5053074 23.4615587 34.1776421 24.4889506 34.0129472 25.9020439 34.0129472 27.6991207L34.0129472 31.4564887 39.0158784 31.4564887 39.0158784 27.5565228C39.0158784 25.3780397 38.9365489 24.0637341 38.7796145 23.6153239 38.62268 23.1651957 38.4209072 22.770045 38.174296 22.4298717"/>
    </g>
  </g>
</svg>
