<svg xmlns="http://www.w3.org/2000/svg" xmlns:xlink="http://www.w3.org/1999/xlink" width="164" height="352" viewBox="0 0 164 352">
  <defs>
    <polygon id="walker-a" points="0 .23 163.841 .23 163.841 351.978 0 351.978"/>
  </defs>
  <g fill="none" fill-rule="evenodd">
    <mask id="walker-b" fill="#fff">
      <use xlink:href="#walker-a"/>
    </mask>
    <path fill="#E1E1DC" d="M97.8917585,352 C52.7877971,352 0,349.719748 0,347.431748 C0,345.142642 37.0679614,342.863497 82.1715266,342.863497 C127.275488,342.863497 163.840754,344.718692 163.840754,347.007799 C163.840754,349.295799 142.996116,352 97.8917585,352" mask="url(#walker-b)"/>
    <path fill="#31322F" d="M124.905411,60.8140881 C122.298444,91.749501 93.2621256,114.859002 60.0497488,112.430792 C26.8369758,110.003321 2.02623188,82.9576184 4.63319807,52.0222055 C7.23976812,21.0867925 36.2764831,-2.0227086 69.489256,0.405501048 C102.701633,2.83297275 127.512377,29.879413 124.905411,60.8140881" mask="url(#walker-b)"/>
    <path fill="#8F6755" d="M111.902458,73.3189312 C111.758562,89.8429533 97.1142708,103.130603 79.1918649,102.999031 C61.2698576,102.865989 46.8583506,89.363341 47.0010507,72.8393189 L47.0995057,61.6803392 C47.2414085,45.1566846 61.8876929,31.8690348 79.808903,32.0009741 C97.7313089,32.134016 112.143613,45.6362969 111.99892,62.160319 L111.902458,73.3189312"/>
    <path fill="#8F6755" d="M53.9997251,72.0639344 C53.9623697,76.4821701 50.1252679,80.0355395 45.4317154,79.9997317 C40.7369955,79.9642894 36.9621527,76.3542853 37.0002864,71.9360496 C37.0376418,67.5181792 40.8735762,63.9655406 45.567907,64.0002522 C50.2626269,64.0353292 54.0370805,67.6464294 53.9997251,72.0639344"/>
    <path fill="#31322F" d="M66 33.0749355L74.2817869 46C75.9361229 45.4193936 78.247827 44.8049874 80 44.4114068L73.654336 31C71.2472205 31.4345159 68.1944613 32.2164192 66 33.0749355M57 37.9723672L66.3290548 49C67.6813454 48.2203696 70.5316575 46.7635257 72 46.1416026L63.027472 34C61.0755162 35.0423521 58.6585916 36.5793484 57 37.9723672"/>
    <path fill="#31322F" d="M75 31.144437L79.6224604 44C80.920354 43.7575773 82.6639661 43.6043175 84 43.4825691 83.3134738 40.8195006 81.4864764 35.3662439 80.3691886 31.0678071 78.548174 30.9553689 76.7548299 30.9840155 75 31.144437M84 31L86.6688515 43C86.8114087 42.9921711 86.9523273 42.9800718 87.0961135 42.974378 88.3561882 42.9209988 89.5539966 42.9263367 90.6997798 42.9832745 90.8546265 40.295098 91.7918992 36.2098099 92 32.5028024 90.0029699 31.9807538 86.2104562 31.2725898 84 31M50 46.4092228L61.4071925 53C62.5356952 52.0510525 63.7359701 51.1665535 65 50.3505772L54.1135375 41C52.6464076 42.5160195 51.0918531 44.6261498 50 46.4092228M46.0850249 57.1193008C45.5895196 63.2491067 47.2831514 69.0835705 50.5546847 74 50.5370818 73.1292497 50.5565574 72.2519523 50.6277184 71.3673806 50.9850215 66.9463403 52.7037469 62.4729241 55 58.8808062L46.0973845 57C46.0940137 57.0400094 46.0883957 57.0792914 46.0850249 57.1193008M47 54.6578538L56.734739 58C57.8324711 56.5704973 59.6297922 54.7324617 61 53.4854949L49.3113448 48C48.3502419 49.9662453 47.4255474 52.4768389 47 54.6578538M105 49.6589592C107.039663 51.6369896 109.323961 54.4535789 111 57 110.917803 52.9013611 109.56703 48.2523939 107.991193 45L105 49.6589592M101.257456 38L98 45.7149967C99.7221593 46.5373077 101.728199 47.7848456 103.14496 49 104.0151 47.3071882 105.015855 45.3599341 106 43.443136 104.801057 41.5556373 102.934692 39.5008236 101.257456 38M93.322629 33L91 42.8303734C92.791967 43.0382514 94.9752832 43.4779794 96.4841307 44 97.1923041 41.7226451 98.128546 38.7075202 99 35.8927596 97.2818088 34.7610591 95.3827357 33.7935857 93.322629 33"/>
    <path fill="#8F6755" d="M81.4886775 31.0258725C81.3255229 31.0134987 81.1631546 31.010499 81 31 82.174713 35.5010672 84.0956125 41.2113931 84.8174241 44 85.3576034 43.9497548 85.4539236 43.8773868 86 43.8477646L83.4386696 31.2036054C82.4911936 31.0757427 82.4742884 31.0997404 81.4886775 31.0258725M91.3750677 33C91.1549875 36.8613985 90.1637604 41.1168324 90 43.9169671 90.6654392 43.9499579 90.6810354 43.9343892 91.313116 44L94 33.8155013C92.9182281 33.4418534 92.5326546 33.29877 91.3750677 33M99.817244 37C98.841399 39.9520931 97.7930051 43.1143262 97 45.5027935 97.6508429 45.7136841 97.7716179 45.7444546 98.3813638 46L102 38.4904937C101.169253 37.8386841 100.74654 37.5726318 99.817244 37M106.924311 43C105.916288 44.7782546 104.891252 46.5847639 104 48.1552217 104.530498 48.5679542 104.547898 48.5461373 105.045143 49L108 44.6641631C107.544514 43.7796853 107.493088 43.8115165 106.924311 43M73 31.3143786L79.6088421 44C80.2741053 43.8639469 80.3221053 43.8643021 81 43.7531151L75.7949474 31C74.5898947 31.0969778 74.1671579 31.1225544 73 31.3143786M63 34.0737958L72.7026633 46C73.339605 45.7543319 73.3457769 45.7630797 74 45.544384L65.5712202 33C64.4668587 33.4122414 64.0397621 33.5697022 63 34.0737958M54 41.2594772L64.9002644 51C65.4457363 50.634224 65.433122 50.6199479 66 50.2811807L56.3466378 39C55.5244163 39.7141893 54.7385086 40.465805 54 41.2594772M49 47.7456636L60.9387592 53C61.4625819 52.5528298 61.4405893 52.5941124 62 52.1729607L50.0520439 46C49.4822368 46.8291208 49.4598444 46.8627713 49 47.7456636M46 57.3041732L55.2149641 59C55.5487498 58.5461179 55.6328746 58.4628187 56 58.0263179L46.3601473 55C46.1988758 55.7565795 46.0771467 56.5239813 46 57.3041732"/>
    <path fill="#FFFFFE" d="M101,83.861395 L73,83 C73,83 77.6293683,92.8863324 86.6893121,92.9987392 C95.6409319,93.109975 100.576623,85.828904 101,83.861395"/>
    <path fill="#0A0B09" d="M98.1466826 73.3419756C98.7381579 75.2171985 100.940625 76.3620676 103.06959 75.8960529 105.197258 75.4318389 106.442901 73.5342876 105.85402 71.6594249 105.262977 69.7831215 103.059646 68.6386125 100.929383 69.1035468 98.8021479 69.5681209 97.5560721 71.4656722 98.1466826 73.3419756M68.1468314 72.3420282C68.7374498 74.2168686 70.9403785 75.3620842 73.0689395 74.8960751 75.1975004 74.4315065 76.4431604 72.534338 75.8538391 70.6591375 75.2632208 68.7832168 73.0585626 67.6390816 70.930434 68.10329 68.8023054 68.5682187 67.5557807 70.4657473 68.1468314 72.3420282"/>
    <path fill="#2F66A2" d="M119.003837,320 C118.655383,309.114715 117.033132,278.955982 113.752625,270.23901 C108.858669,257.231702 89.1980306,224.555639 89,224.226829 L101.251093,218 C102.083622,219.381372 121.701054,251.99057 126.986671,266.039051 C131.554977,278.179328 132.865579,315.41649 133,319.622694 L119.003837,320"/>
    <path fill="#2F66A2" d="M104,223.5 C104,229.851339 102.471909,235 95.7272727,235 L64.2121212,235 C57.4674848,235 52,229.851339 52,223.5 C52,217.148661 57.4674848,212 64.2121212,212 L91.7878788,212 C98.5325152,212 104,217.148661 104,223.5"/>
    <path fill="#2F66A2" d="M37.4562369,311 L30,300.108809 C35.603763,296.690171 52.100481,284.479161 57.4073455,276.014614 C62.218201,268.340921 61.913448,238.516645 60.7183922,218.738254 L74.4417011,218 C74.4727262,218.51637 75.2024054,230.802947 74.9451719,244.884966 C74.4028216,274.605523 70.7104409,280.266334 69.2389082,282.613338 C65.7790195,288.131907 58.6762332,295.845605 49.6762026,302.617317 C43.1935257,307.495053 37.6875507,310.859239 37.4562369,311"/>
    <polyline fill="#FFFFFE" points="18.14 338 3 312.955 6.859 311 22 336.045 18.14 338"/>
    <polyline fill="#8F6755" points="18 308.418 22.498 316 33 310.581 28.502 303 18 308.418"/>
    <path fill="#31322F" d="M24.9830311,317.698368 L29,315.606408 C27.4790351,313.375008 24.8264789,313.181154 23.0698829,314.095631 L19.4808233,308 L7,310.169427 L22.1815495,336 L24.4904937,334.797954 L24.9830311,317.698368"/>
    <polyline fill="#7BA9CE" points="26 300.578 33.748 313 39 310.422 31.252 298 26 300.578"/>
    <polyline fill="#FFFFFE" points="150 346.268 119.39 349 119 344.732 149.611 342 150 346.268"/>
    <polyline fill="#8F6755" points="122.149 334 132 333.216 130.851 322 121 322.784 122.149 334"/>
    <path fill="#31322F" d="M133.466481,332.110234 L133.055703,328 C130.294206,328.391142 129.044341,330.498399 129.222836,332.294619 L121.905727,332.898651 L119,344 L150,341.465157 L149.764928,339.103153 L133.466481,332.110234"/>
    <polyline fill="#7BA9CE" points="117.524 324 133 322.642 132.477 317 117 318.358 117.524 324"/>
    <path fill="#8F6755" d="M124.389683,231 C111.439957,215.108531 103.795059,194.333603 102.281626,170.921674 C101.146051,153.361249 103.803874,140.537598 103.917272,140 L115.715795,142.122681 L109.816734,141.061525 L115.716997,142.117138 C115.691753,142.23722 113.211439,154.33964 114.301335,170.565861 C115.289453,185.282744 119.509193,206.558691 134,224.341175 L124.389683,231"/>
    <path fill="#31322F" d="M110.093513,150.258709 L120,144.716203 C118.594523,128.48542 107.317617,109 79.95099,109 C52.5839696,109 35.4058711,128.149521 34,144.379936 L49.8250116,150.253178 L47.6636177,224 L108.517866,224 L110.093513,150.258709"/>
    <path fill="#8F6755" d="M64.4021752 228C36.8746381 210.240798 31.6002788 186.894571 32.0227112 170.436845 32.2973118 159.741959 34.9458031 150.620934 37.0392424 145L47.9366724 149.083194C46.1517687 153.983542 43.8894345 161.932096 43.7123483 171.085925 43.3293117 190.863503 52.5100982 206.939374 71 218.86718L64.4021752 228M89.9966042 109.675294C88.4584464 109.334887 87.5817944 109.226394 85.6858434 108.978826L84.6939765 99.3709885 73.7089823 99 73.2900547 108.865964C71.0339593 109.075305 69.8195004 109.254428 68.0195618 109.661095 67.9744948 110.170431 68.0183862 110.608044 68.0407237 111.133399 68.3099503 117.408165 74.6165934 122.267786 80.6763474 121.988544 86.7361015 121.708937 90.2544661 116.395683 89.9856314 110.121281 89.9813206 110.017885 90.0036582 109.777598 89.9966042 109.675294"/>
  </g>
</svg>
